<svg xmlns="http://www.w3.org/2000/svg" xmlns:xlink="http://www.w3.org/1999/xlink" viewBox="0 0 200 200">
  <defs>
    <clipPath id="a">
      <rect width="200" height="200" style="fill: none"/>
    </clipPath>
  </defs>
  <title>bootsMesa de trabajo 1</title>
  <g>
    <rect width="200" height="200" style="fill: #1b2261"/>
    <g style="clip-path: url(#a)">
      <g style="isolation: isolate">
        <ellipse cx="57.94" cy="19.6" rx="4.48" ry="7.73" transform="translate(38.18 77.48) rotate(-89.84)" style="fill: #35a2bd"/>
        <path d="M57.54,5.85,333.79,165.34,310.46,178.9,77.6,44.46l-43.39-25Zm10.62,26a12,12,0,0,0,10.92,0c3-1.74,3-4.58,0-6.33a12.1,12.1,0,0,0-10.93,0c-3,1.75-3,4.59,0,6.33m15.66,9a12,12,0,0,0,10.92,0c3-1.74,3-4.58,0-6.32a12,12,0,0,0-10.93,0c-3,1.74-3,4.57,0,6.32M52.49,22.76a12.1,12.1,0,0,0,10.93,0c3-1.75,3-4.58,0-6.33a12.07,12.07,0,0,0-10.92,0c-3,1.75-3,4.58,0,6.33" style="fill: #443283"/>
        <ellipse cx="89.26" cy="37.68" rx="4.48" ry="7.73" transform="matrix(0, -1, 1, 0, 51.33, 126.84)" style="fill: #cc6475"/>
        <polygon points="77.49 91.53 72.04 94.7 48.34 81.01 53.78 77.85 77.49 91.53" style="fill: #2b3663"/>
        <polygon points="77.6 44.46 -27.77 105.69 -71.16 80.65 34.21 19.41 77.6 44.46" style="fill: #35a2bd"/>
        <polygon points="58.28 112.88 52.83 116.05 20.34 97.29 25.78 94.12 58.28 112.88" style="fill: #2b3663"/>
        <polygon points="81.79 137.28 76.35 140.44 11 102.71 16.44 99.55 81.79 137.28" style="fill: #2b3663"/>
        <polygon points="180.26 150.87 174.82 154.04 103 112.57 108.45 109.41 180.26 150.87" style="fill: #2b3663"/>
        <polygon points="219.23 151.75 213.79 154.91 146.38 116 151.83 112.83 219.23 151.75" style="fill: #2b3663"/>
        <polygon points="91.3 153.59 85.85 156.75 1.66 108.14 7.1 104.98 91.3 153.59" style="fill: #2b3663"/>
        <polygon points="254.83 161.49 249.39 164.65 76.34 64.74 81.79 61.58 254.83 161.49" style="fill: #2b3663"/>
        <polygon points="208.15 188.61 202.71 191.78 135.84 153.17 141.28 150 208.15 188.61" style="fill: #2b3663"/>
        <path d="M58.39-2.65,348.46,164.82,204.25,248.63-85.82,81.16ZM204.24,246.77l141-82L58.4-.79l-141,82L204.24,246.77" style="fill: #4c3c88"/>
        <ellipse cx="73.6" cy="28.64" rx="4.48" ry="7.73" transform="translate(44.75 102.16) rotate(-89.84)" style="fill: #d9881e"/>
        <path d="M77.6,44.46,310.46,178.9,205.08,240.14-27.78,105.69ZM249.39,164.65l5.44-3.17-173-99.9-5.45,3.16,173,99.91m-37.34,21.7,5.44-3.17L90.75,110l-5.44,3.17,126.74,73.17M63.11,72.43l-5.45,3.16L167,138.71l5.44-3.17L63.11,72.43m22.74,84.32,5.45-3.16L7.1,105l-5.44,3.16,84.19,48.61m94.41-5.88-71.81-41.46L103,112.57,174.82,154l5.44-3.17M146.38,116l67.41,38.91,5.44-3.16-67.4-38.92L146.38,116m56.33,75.78,5.44-3.17L141.28,150l-5.44,3.17,66.87,38.61M72.45,67,67,70.17l66.61,38.45,5.45-3.16L72.45,67m-56,32.55L11,102.71l65.35,37.73,5.44-3.16L16.44,99.55m94.47,50,5.44-3.17-48.44-28-5.45,3.17,48.45,28M25.78,94.12l-5.44,3.17,32.49,18.76,5.45-3.17L25.78,94.12m28-16.27L48.34,81,72,94.7l5.45-3.17L53.78,77.85" style="fill: #a1a09f"/>
        <polygon points="139.06 105.46 133.61 108.63 67 70.17 72.45 67 139.06 105.46" style="fill: #2b3663"/>
        <polygon points="172.42 135.54 166.98 138.71 57.66 75.59 63.11 72.43 172.42 135.54" style="fill: #2b3663"/>
        <polygon points="116.35 146.41 110.91 149.58 62.46 121.61 67.91 118.44 116.35 146.41" style="fill: #2b3663"/>
        <polygon points="217.49 183.19 212.05 186.35 85.31 113.18 90.75 110.01 217.49 183.19" style="fill: #2b3663"/>
      </g>
    </g>
  </g>
  <g>
    <polygon points="135.15 110.62 135.21 131.58 65.11 172.06 65.05 151.1 135.15 110.62" style="fill: #c87d1a"/>
    <g style="isolation: isolate">
      <path d="M116.05,85c2.89.08,4.9,1.89,4.91,6.45,0,6.67-3.34,13.06-11.2,17.6L79.55,126.51,79.44,87l30-17.29c8-4.6,10.42-1.19,10.44,4A20.18,20.18,0,0,1,116.05,85Zm-7.68,18.67c3.47-2,5.92-3.42,5.9-8.81s-2.46-4-5.93-2l-22.58,13,0,10.78,22.58-13M85.71,89.6l0,10.39,21.51-12.42c3.51-2,6-3.44,6-8.61s-2.46-3.81-6-1.78L85.71,89.6" style="fill: #c5c5c5"/>
      <path d="M113.2,79c0,5.17-2.44,6.58-6,8.61L85.74,100l0-10.39,21.51-12.42C110.74,75.15,113.18,73.74,113.2,79Z" style="fill: #3e2d7b"/>
      <path d="M118,48.73,135,39l.2,71.67L65.05,151.1,64.79,60,118,29.26Zm-8.24,60.34c7.86-4.54,11.22-10.93,11.2-17.6,0-4.56-2-6.37-4.91-6.45a20.18,20.18,0,0,0,3.79-11.3c0-5.17-2.48-8.58-10.44-4L79.44,87l.11,39.48,30.21-17.44" style="fill: #3e2d7b"/>
    </g>
    <path d="M108.34,92.9c3.47-2,5.92-3.42,5.93,2s-2.43,6.8-5.9,8.81l-22.58,13,0-10.78Z" style="fill: #3e2d7b"/>
    <polygon points="117.95 29.26 134.95 38.95 118 48.73 117.95 29.26" style="fill: #1f1442"/>
  </g>
</svg>
