<svg xmlns="http://www.w3.org/2000/svg" xmlns:xlink="http://www.w3.org/1999/xlink" viewBox="0 0 200 200">
  <defs>
    <clipPath id="a">
      <rect width="200" height="200" style="fill: none"/>
    </clipPath>
  </defs>
  <title>css_2Mesa de trabajo 1</title>
  <rect width="200" height="200" style="fill: #3eb2d1"/>
  <g style="clip-path: url(#a)">
    <g>
      <g style="isolation: isolate">
        <polygon points="43.34 36.01 43.05 137.72 6.84 116.82 7.13 15.11 43.34 36.01" style="fill: #2d1f61"/>
        <path d="M7.19-7.43l186,107.37-.06,22.54L43.34,36,7.13,15.1ZM31.27,23c2.53,1.46,4.59.28,4.59-2.62a10,10,0,0,0-4.56-7.9c-2.53-1.46-4.58-.28-4.59,2.62A10.07,10.07,0,0,0,31.27,23M18.2,15.48c2.53,1.46,4.58.28,4.59-2.62A10,10,0,0,0,18.23,5c-2.53-1.46-4.58-.29-4.59,2.61a10,10,0,0,0,4.56,7.9M44.34,30.57c2.53,1.46,4.58.29,4.59-2.62a10,10,0,0,0-4.56-7.89c-2.53-1.46-4.58-.29-4.59,2.61a10.06,10.06,0,0,0,4.56,7.9" style="fill: #030b3c"/>
        <path d="M44.37,20.06A10,10,0,0,1,48.93,28c0,2.91-2.06,4.08-4.59,2.62a10.06,10.06,0,0,1-4.56-7.9C39.79,19.77,41.84,18.6,44.37,20.06Z" style="fill: #904651"/>
        <polygon points="121.29 147.44 121.28 152.69 84.71 131.58 84.72 126.33 121.29 147.44" style="fill: #192044"/>
        <polygon points="103.33 91.95 103.32 97.2 53.05 68.17 53.06 62.92 103.33 91.95" style="fill: #192044"/>
        <polygon points="102.24 145.46 102.22 150.72 52.89 122.24 52.91 116.98 102.24 145.46" style="fill: #192044"/>
        <polygon points="183.6 165.36 183.58 170.62 87.92 115.39 87.93 110.13 183.6 165.36" style="fill: #192044"/>
        <polygon points="116.43 162.68 116.41 167.94 52.87 131.25 52.88 125.99 116.43 162.68" style="fill: #192044"/>
        <polygon points="163.85 126.89 163.84 132.14 112.96 102.77 112.97 97.51 163.85 126.89" style="fill: #192044"/>
        <polygon points="70.89 91.26 70.88 96.53 52.99 86.2 53.01 80.94 70.89 91.26" style="fill: #192044"/>
        <polygon points="183.7 129.31 183.68 134.57 53.07 59.16 53.09 53.9 183.7 129.31" style="fill: #192044"/>
        <path d="M2.75-17.12,2.36,121.36l194.9,112.53.39-138.48Zm193.8,249.78L3.07,121,3.45-15.89,196.93,95.81l-.38,136.85" style="fill: #322764"/>
        <polygon points="52.92 113.23 77.44 127.38 77.45 122.13 52.93 107.97 52.92 113.23" style="fill: #192044"/>
        <path d="M18.23,5a10,10,0,0,1,4.56,7.89c0,2.9-2.06,4.08-4.59,2.62a10,10,0,0,1-4.56-7.9C13.65,4.68,15.7,3.51,18.23,5Z" style="fill: #177385"/>
        <polygon points="135.54 119.57 135.53 124.82 53.02 77.18 53.04 71.93 135.54 119.57" style="fill: #192044"/>
        <polygon points="148.47 136.06 148.46 141.31 94.25 110.02 94.26 104.76 148.47 136.06" style="fill: #192044"/>
      </g>
      <polygon points="183.57 174.37 183.56 179.63 133.08 150.49 133.1 145.23 183.57 174.37" style="fill: #192044"/>
      <path d="M43.34,36,193.1,122.48l-.29,101.71L43.05,137.73Zm140.34,98.56,0-5.26L53.09,53.9l0,5.26,130.61,75.41m-.1,36.05,0-5.26L87.93,110.13v5.26l95.66,55.23M53,71.93l0,5.25,82.51,47.64v-5.25L53,71.93m63.37,96,0-5.26L52.88,126v5.26l63.54,36.69m32.06-31.88-54.21-31.3V110l54.21,31.3v-5.26M113,102.76l50.88,29.38v-5.25L113,97.51v5.25m70.59,76.87,0-5.26L133.1,145.23l0,5.26,50.47,29.14M53.06,62.92v5.25l50.27,29V92l-50.27-29M52.91,117l0,5.26,49.33,28.48,0-5.26L52.91,117m68.37,35.71v-5.25L84.72,126.33v5.25l36.57,21.11M52.93,108v5.26l24.52,14.15v-5.25L52.93,108m.08-27V86.2L70.88,96.52V91.26L53,80.94" style="fill: #707171"/>
      <path d="M31.3,12.51a10,10,0,0,1,4.56,7.9c0,2.9-2.06,4.08-4.59,2.62a10.07,10.07,0,0,1-4.56-7.9C26.72,12.23,28.77,11.05,31.3,12.51Z" style="fill: #985f0f"/>
    </g>
  </g>
  <g>
    <path d="M102.56,81.43c7.78-4.49,9.92-3.7,9.53,3.94-.31,5.57,1.56,4.53,4.17,3v4.37c-2.61,1.5-4.48,2.62-4.14,7.79.44,7.19-1.25,10.25-9.47,15v-3.79c5.2-3,6.29-4.31,5.95-10.3-.32-5.25,2.56-7.6,3.75-8.28V92.5c-1.19.68-4.07,1.66-3.79-3.93.31-6.3-.79-6.35-6-3.35Z" style="fill: #c5c5c5"/>
    <g style="isolation: isolate">
      <polygon points="102.89 142.01 102.9 143.29 101.79 143.93 100.68 144.57 99.57 145.21 99.57 146.48 100.69 145.84 101.8 145.2 102.9 144.56 102.9 145.84 102.91 147.11 102.91 148.38 102.92 149.66 101.81 150.3 100.7 150.94 99.59 151.58 98.48 152.22 97.37 152.86 97.37 151.58 97.37 150.31 98.48 149.66 99.58 149.03 99.58 150.3 100.7 149.66 100.69 148.38 100.69 147.12 99.58 147.76 98.47 148.4 97.36 149.04 97.36 147.76 97.36 146.49 97.35 145.21 98.46 144.57 99.57 143.94 100.68 143.29 101.79 142.65 102.89 142.01" style="fill: #121950"/>
      <path d="M65.05,155.28l70.1-40.47.06,21-70.1,40.47Zm31.19-8.15v-1.27l-1.1.63-1.11.64-1.11.64-1.11.64-1.11.65v3.82l1.11-.64,1.11-.65L94,151v2.54l-1.1.64v-1.28l-1.12.65-1.11.64v2.55l1.11-.64,1.11-.64,1.11-.64,1.11-.64,1.1-.64v-5.1l-1.11.64-1.11.64-1.1.64v-1.27l1.11-.64,1.11-.64,1.1-.64m18.85-10.88V135l-1.11.65-1.11.63-1.11.64-1.11.65-1.1.63v1.28l1.1-.64,1.12-.64,1.11-.64v1.27l-1.11.64-1.11.64-1.11.64V142l1.1-.64,1.11-.64,1.11-.64v2.54l-1.11.64V142l-1.11.64-1.11.63v2.56l1.1-.64,1.11-.64,1.11-.64,1.11-.64,1.11-.64v-6.37M89.6,151v-1.28l-1.11.64-1.1.64-1.11.64-1.11.64-1.11.64v7.65l1.11-.64,1.11-.64,1.11-.64,1.11-.64,1.11-.64v-2.56l-1.11.65-1.11.63v1.28l-1.11.64v-5.09l1.11-.64v1.27l1.1-.64,1.11-.64V151m13.3-7.68V142l-1.1.64-1.11.64-1.11.64-1.11.64-1.11.64V149l1.11-.65,1.11-.63,1.11-.64v2.54l-1.11.64V149l-1.1.63-1.11.65v2.55l1.11-.64,1.11-.64,1.11-.64,1.11-.64,1.11-.64v-5.1l-1.1.64-1.11.64-1.12.64v-1.27l1.11-.64,1.11-.64,1.11-.64" style="fill: #c87d1a"/>
      <polygon points="115.09 134.97 115.09 136.25 115.09 137.52 115.1 138.8 115.1 140.06 115.11 141.34 115.11 142.62 114 143.26 112.89 143.9 111.78 144.54 110.67 145.18 109.57 145.82 109.56 144.54 109.56 143.26 110.67 142.63 111.78 141.99 111.78 143.26 112.89 142.62 112.89 141.34 112.88 140.07 111.77 140.72 110.66 141.36 109.56 142 109.55 140.72 110.66 140.08 111.77 139.44 112.88 138.8 112.88 137.53 111.77 138.17 110.66 138.81 109.55 139.45 109.55 138.17 110.65 137.54 111.76 136.89 112.87 136.25 113.98 135.62 115.09 134.97" style="fill: #121950"/>
      <polygon points="89.59 149.69 89.6 150.97 89.6 152.24 88.49 152.88 87.39 153.52 87.38 152.25 86.27 152.89 86.28 154.16 86.28 155.44 86.28 156.71 86.29 157.98 87.4 157.34 87.39 156.06 88.5 155.43 89.61 154.78 89.61 156.06 89.62 157.34 88.5 157.98 87.4 158.62 86.29 159.26 85.18 159.9 84.07 160.54 84.07 159.26 84.07 157.98 84.06 156.72 84.06 155.44 84.06 154.17 84.05 152.89 85.16 152.25 86.27 151.61 87.38 150.97 88.48 150.33 89.59 149.69" style="fill: #121950"/>
      <path d="M118,53,135,43.23l.2,71.58-70.1,40.47-.26-91L118,33.54Zm-1.73,39.74V88.39c-2.61,1.51-4.48,2.55-4.17-3,.39-7.64-1.75-8.43-9.53-3.94v3.79c5.2-3,6.3-3,6,3.35-.28,5.59,2.6,4.61,3.79,3.93v.68c-1.19.68-4.07,3-3.75,8.28.34,6-.75,7.3-5.95,10.3v3.79c8.22-4.75,9.91-7.81,9.47-15-.34-5.17,1.53-6.29,4.14-7.79M97.35,88.23V84.45c-7.75,4.47-9.91,7.74-9.44,14.89.31,5.21-1.56,6.33-4.18,7.84l0,4.36c2.61-1.51,4.48-2.55,4.2,3-.43,7.68,1.3,8.77,9.5,4v-3.78c-5.2,3-6.3,3-6-3.42.28-5.59-2.6-4.61-3.79-3.92v-.69c1.19-.68,4.07-3,3.76-8.28-.35-5.92.74-7.23,5.94-10.24" style="fill: #121950"/>
      <path d="M97.34,84.45v3.78c-5.2,3-6.29,4.32-5.94,10.24.31,5.25-2.57,7.6-3.76,8.28v.69c1.19-.69,4.07-1.67,3.79,3.92-.31,6.37.79,6.42,6,3.42v3.78c-8.2,4.73-9.93,3.64-9.5-4,.28-5.53-1.59-4.49-4.2-3l0-4.36c2.62-1.51,4.49-2.63,4.18-7.84C87.43,92.19,89.59,88.92,97.34,84.45Z" style="fill: #c5c5c5"/>
    </g>
    <polygon points="117.95 33.54 134.95 43.23 118 53.02 117.95 33.54" style="fill: #2e95ae"/>
    <polygon points="96.24 145.85 96.24 147.13 95.14 147.77 94.03 148.41 92.92 149.05 92.93 150.32 94.03 149.68 95.14 149.04 96.25 148.4 96.25 149.68 96.25 150.95 96.26 152.22 96.26 153.5 95.16 154.14 94.05 154.78 92.94 155.42 91.83 156.06 90.72 156.7 90.72 155.42 90.71 154.15 91.82 153.5 92.94 152.86 92.94 154.14 94.04 153.5 94.04 152.23 94.04 150.96 92.93 151.59 91.82 152.24 90.71 152.88 90.71 151.6 90.7 150.33 90.7 149.06 91.81 148.41 92.92 147.77 94.03 147.13 95.14 146.49 96.24 145.85" style="fill: #121950"/>
  </g>
</svg>
