<svg xmlns="http://www.w3.org/2000/svg" xmlns:xlink="http://www.w3.org/1999/xlink" viewBox="0 0 200 200">
  <defs>
    <clipPath id="a">
      <rect width="200" height="200" style="fill: none"/>
    </clipPath>
  </defs>
  <title>gi_1Mesa de trabajo 1</title>
  <rect width="200" height="200" style="fill: #35a2bd"/>
  <g style="clip-path: url(#a)">
    <g style="isolation: isolate">
      <ellipse cx="57.94" cy="19.6" rx="4.48" ry="7.73" transform="translate(38.18 77.48) rotate(-89.84)" style="fill: #35a2bd"/>
      <path d="M57.54,5.85,333.79,165.34,310.46,178.9,77.6,44.46l-43.39-25Zm10.62,26a12,12,0,0,0,10.92,0c3-1.74,3-4.58,0-6.33a12.1,12.1,0,0,0-10.93,0c-3,1.75-3,4.59,0,6.33m15.66,9a12,12,0,0,0,10.92,0c3-1.74,3-4.58,0-6.32a12,12,0,0,0-10.93,0c-3,1.74-3,4.57,0,6.32M52.49,22.76a12.1,12.1,0,0,0,10.93,0c3-1.75,3-4.58,0-6.33a12.07,12.07,0,0,0-10.92,0c-3,1.75-3,4.58,0,6.33" style="fill: #443283"/>
      <ellipse cx="89.26" cy="37.68" rx="4.48" ry="7.73" transform="matrix(0, -1, 1, 0, 51.33, 126.84)" style="fill: #cc6475"/>
      <polygon points="77.49 91.53 72.04 94.7 48.34 81.01 53.78 77.85 77.49 91.53" style="fill: #2b3663"/>
      <polygon points="77.6 44.46 -27.77 105.69 -71.16 80.65 34.21 19.41 77.6 44.46" style="fill: #cc6475"/>
      <polygon points="58.28 112.88 52.83 116.05 20.34 97.29 25.78 94.12 58.28 112.88" style="fill: #2b3663"/>
      <polygon points="81.79 137.28 76.35 140.44 11 102.71 16.44 99.55 81.79 137.28" style="fill: #2b3663"/>
      <polygon points="180.26 150.87 174.82 154.04 103 112.57 108.45 109.41 180.26 150.87" style="fill: #2b3663"/>
      <polygon points="219.23 151.75 213.79 154.91 146.38 116 151.83 112.83 219.23 151.75" style="fill: #2b3663"/>
      <polygon points="91.3 153.59 85.85 156.75 1.66 108.14 7.1 104.98 91.3 153.59" style="fill: #2b3663"/>
      <polygon points="254.83 161.49 249.39 164.65 76.34 64.74 81.79 61.58 254.83 161.49" style="fill: #2b3663"/>
      <polygon points="208.15 188.61 202.71 191.78 135.84 153.17 141.28 150 208.15 188.61" style="fill: #2b3663"/>
      <path d="M58.39-2.65,348.46,164.82,204.25,248.63-85.82,81.16ZM204.24,246.77l141-82L58.4-.79l-141,82L204.24,246.77" style="fill: #4c3c88"/>
      <ellipse cx="73.6" cy="28.64" rx="4.48" ry="7.73" transform="translate(44.75 102.16) rotate(-89.84)" style="fill: #d9881e"/>
      <path d="M77.6,44.46,310.46,178.9,205.08,240.14-27.78,105.69ZM249.39,164.65l5.44-3.17-173-99.9-5.45,3.16,173,99.91m-37.34,21.7,5.44-3.17L90.75,110l-5.44,3.17,126.74,73.17M63.11,72.43l-5.45,3.16L167,138.71l5.44-3.17L63.11,72.43m22.74,84.32,5.45-3.16L7.1,105l-5.44,3.16,84.19,48.61m94.41-5.88-71.81-41.46L103,112.57,174.82,154l5.44-3.17M146.38,116l67.41,38.91,5.44-3.16-67.4-38.92L146.38,116m56.33,75.78,5.44-3.17L141.28,150l-5.44,3.17,66.87,38.61M72.45,67,67,70.17l66.61,38.45,5.45-3.16L72.45,67m-56,32.55L11,102.71l65.35,37.73,5.44-3.16L16.44,99.55m94.47,50,5.44-3.17-48.44-28-5.45,3.17,48.45,28M25.78,94.12l-5.44,3.17,32.49,18.76,5.45-3.17L25.78,94.12m28-16.27L48.34,81,72,94.7l5.45-3.17L53.78,77.85" style="fill: #a1a09f"/>
      <polygon points="139.06 105.46 133.61 108.63 67 70.17 72.45 67 139.06 105.46" style="fill: #2b3663"/>
      <polygon points="172.42 135.54 166.98 138.71 57.66 75.59 63.11 72.43 172.42 135.54" style="fill: #2b3663"/>
      <polygon points="116.35 146.41 110.91 149.58 62.46 121.61 67.91 118.44 116.35 146.41" style="fill: #2b3663"/>
      <polygon points="217.49 183.19 212.05 186.35 85.31 113.18 90.75 110.01 217.49 183.19" style="fill: #2b3663"/>
    </g>
  </g>
  <g>
    <polygon points="117.95 33.54 134.95 43.23 118 53.02 117.95 33.54" style="fill: #1f1442"/>
    <polygon points="117.95 33.54 118 53.02 134.95 43.23 135.15 114.81 65.05 155.28 65.11 176.24 135.21 135.77 65.11 176.24 64.79 64.23 117.95 33.54" style="fill: #949392"/>
    <polygon points="135.15 114.81 135.21 135.77 65.11 176.24 65.05 155.28 135.15 114.81" style="fill: #1f1442"/>
  </g>
  <g>
    <path d="M94,96.77c3.22-1.86,4.94-1.14,5.19.79l-1.68,1c-.25-1.19-1.42-1.37-3.51-.17-3.34,1.93-3.8,4.61-3.8,5.83s.59,3.28,4,1.33a13.35,13.35,0,0,0,3.45-2.76v-1.6l-3.72,2.15v-1.49l5.29-3v3.84a17.6,17.6,0,0,1-5,4.47c-3.49,2-5.63,1.23-5.64-1.94S90.57,98.77,94,96.77Z" style="fill: #9f1319"/>
    <polygon points="100.98 91.68 102.5 90.8 102.51 92.76 100.99 93.64 100.98 91.68" style="fill: #9f1319"/>
    <polygon points="101.02 102.87 100.99 94.72 102.51 93.84 102.53 101.99 101.02 102.87" style="fill: #9f1319"/>
    <path d="M107.66,88.37v2.49l3.61-2.09v1.52l-3.62,2.09v3.15c0,1.77.28,2,1.77,1.19a18.51,18.51,0,0,0,1.85-1.24V97a19.89,19.89,0,0,1-2.2,1.49c-2.24,1.3-2.94.88-3-1.93V93.26L104,94.48V93l2.11-1.22v-1.9Z" style="fill: #9f1319"/>
  </g>
</svg>
