<svg xmlns="http://www.w3.org/2000/svg" xmlns:xlink="http://www.w3.org/1999/xlink" viewBox="0 0 200 200">
  <defs>
    <clipPath id="a">
      <rect width="200" height="200" style="fill: none"/>
    </clipPath>
  </defs>
  <title>githubMesa de trabajo 1</title>
  <rect width="200" height="200" style="fill: #1b2261"/>
  <g style="clip-path: url(#a)">
    <g style="isolation: isolate">
      <ellipse cx="57.94" cy="19.6" rx="4.48" ry="7.73" transform="translate(38.18 77.48) rotate(-89.84)" style="fill: #35a2bd"/>
      <path d="M57.54,5.85,333.79,165.34,310.46,178.9,77.6,44.46l-43.39-25Zm10.62,26a12,12,0,0,0,10.92,0c3-1.74,3-4.58,0-6.33a12.1,12.1,0,0,0-10.93,0c-3,1.75-3,4.59,0,6.33m15.66,9a12,12,0,0,0,10.92,0c3-1.74,3-4.58,0-6.32a12,12,0,0,0-10.93,0c-3,1.74-3,4.57,0,6.32M52.49,22.76a12.1,12.1,0,0,0,10.93,0c3-1.75,3-4.58,0-6.33a12.07,12.07,0,0,0-10.92,0c-3,1.75-3,4.58,0,6.33" style="fill: #443283"/>
      <ellipse cx="89.26" cy="37.68" rx="4.48" ry="7.73" transform="matrix(0, -1, 1, 0, 51.33, 126.84)" style="fill: #cc6475"/>
      <polygon points="77.49 91.53 72.04 94.7 48.34 81.01 53.78 77.85 77.49 91.53" style="fill: #2b3663"/>
      <polygon points="77.6 44.46 -27.77 105.69 -71.16 80.65 34.21 19.41 77.6 44.46" style="fill: #35a2bd"/>
      <polygon points="58.28 112.88 52.83 116.05 20.34 97.29 25.78 94.12 58.28 112.88" style="fill: #2b3663"/>
      <polygon points="81.79 137.28 76.35 140.44 11 102.71 16.44 99.55 81.79 137.28" style="fill: #2b3663"/>
      <polygon points="180.26 150.87 174.82 154.04 103 112.57 108.45 109.41 180.26 150.87" style="fill: #2b3663"/>
      <polygon points="219.23 151.75 213.79 154.91 146.38 116 151.83 112.83 219.23 151.75" style="fill: #2b3663"/>
      <polygon points="91.3 153.59 85.85 156.75 1.66 108.14 7.1 104.98 91.3 153.59" style="fill: #2b3663"/>
      <polygon points="254.83 161.49 249.39 164.65 76.34 64.74 81.79 61.58 254.83 161.49" style="fill: #2b3663"/>
      <polygon points="208.15 188.61 202.71 191.78 135.84 153.17 141.28 150 208.15 188.61" style="fill: #2b3663"/>
      <path d="M58.39-2.65,348.46,164.82,204.25,248.63-85.82,81.16ZM204.24,246.77l141-82L58.4-.79l-141,82L204.24,246.77" style="fill: #4c3c88"/>
      <ellipse cx="73.6" cy="28.64" rx="4.48" ry="7.73" transform="translate(44.75 102.16) rotate(-89.84)" style="fill: #d9881e"/>
      <path d="M77.6,44.46,310.46,178.9,205.08,240.14-27.78,105.69ZM249.39,164.65l5.44-3.17-173-99.9-5.45,3.16,173,99.91m-37.34,21.7,5.44-3.17L90.75,110l-5.44,3.17,126.74,73.17M63.11,72.43l-5.45,3.16L167,138.71l5.44-3.17L63.11,72.43m22.74,84.32,5.45-3.16L7.1,105l-5.44,3.16,84.19,48.61m94.41-5.88-71.81-41.46L103,112.57,174.82,154l5.44-3.17M146.38,116l67.41,38.91,5.44-3.16-67.4-38.92L146.38,116m56.33,75.78,5.44-3.17L141.28,150l-5.44,3.17,66.87,38.61M72.45,67,67,70.17l66.61,38.45,5.45-3.16L72.45,67m-56,32.55L11,102.71l65.35,37.73,5.44-3.16L16.44,99.55m94.47,50,5.44-3.17-48.44-28-5.45,3.17,48.45,28M25.78,94.12l-5.44,3.17,32.49,18.76,5.45-3.17L25.78,94.12m28-16.27L48.34,81,72,94.7l5.45-3.17L53.78,77.85" style="fill: #a1a09f"/>
      <polygon points="139.06 105.46 133.61 108.63 67 70.17 72.45 67 139.06 105.46" style="fill: #2b3663"/>
      <polygon points="172.42 135.54 166.98 138.71 57.66 75.59 63.11 72.43 172.42 135.54" style="fill: #2b3663"/>
      <polygon points="116.35 146.41 110.91 149.58 62.46 121.61 67.91 118.44 116.35 146.41" style="fill: #2b3663"/>
      <polygon points="217.49 183.19 212.05 186.35 85.31 113.18 90.75 110.01 217.49 183.19" style="fill: #2b3663"/>
    </g>
  </g>
  <g>
    <polygon points="117.95 33.54 134.95 43.23 118 53.02 117.95 33.54" style="fill: #3e2d7b"/>
    <polygon points="135.15 114.81 135.21 135.77 65.11 176.24 65.05 155.28 135.15 114.81" style="fill: #3e2d7b"/>
    <path d="M75.94,107.62c3.23-1.86,5-1.14,5.2.8l-1.68,1c-.25-1.2-1.43-1.38-3.51-.18-3.35,1.93-3.8,4.6-3.8,5.82s.59,3.29,4,1.34a13.44,13.44,0,0,0,3.46-2.76V112l-3.72,2.14v-1.48l5.29-3v3.84a17.6,17.6,0,0,1-5,4.47c-3.5,2-5.63,1.23-5.64-1.94S72.48,109.62,75.94,107.62Z" style="fill: #c5c5c5"/>
    <polygon points="82.89 102.53 84.41 101.65 84.42 103.61 82.9 104.49 82.89 102.53" style="fill: #c5c5c5"/>
    <polygon points="82.92 113.72 82.9 105.56 84.42 104.69 84.44 112.84 82.92 113.72" style="fill: #c5c5c5"/>
    <path d="M89.57,99.22v2.49l3.61-2.09v1.53l-3.62,2.08v3.14c0,1.78.28,2.06,1.77,1.2a20.45,20.45,0,0,0,1.85-1.24v1.49a19.67,19.67,0,0,1-2.21,1.5c-2.23,1.29-2.93.88-2.94-1.93v-3.28L86,105.33v-1.52l2.11-1.22v-1.9Z" style="fill: #c5c5c5"/>
    <polygon points="105.7 90.72 105.73 100.55 104.17 101.45 104.16 97.34 96.83 101.57 96.84 105.68 95.28 106.58 95.26 96.75 96.81 95.85 96.83 99.97 104.16 95.74 104.14 91.62 105.7 90.72" style="fill: #c5c5c5"/>
    <path d="M125,81c2.53-1.46,4.54-1.22,4.54,1.75s-2,5.5-4.51,7c-1.83,1-3.09,1.15-3.81.5v1.42l-1.52.88,0-11.19,1.52-.88v4.46A9.25,9.25,0,0,1,125,81Zm-.38,7.39c2.17-1.25,3.29-3,3.28-4.7s-1.13-2.14-3.29-.89-3.4,3-3.4,4.76,1.24,2.08,3.41.83" style="fill: #c5c5c5"/>
    <path d="M118,53,135,43.23l.2,71.58-70.1,40.47-.26-91L118,33.54Zm7,36.67c2.53-1.46,4.52-4,4.51-7s-2-3.21-4.54-1.75a9.25,9.25,0,0,0-3.8,3.9V80.42l-1.52.88,0,11.19,1.52-.88V90.19c.72.65,2,.55,3.81-.5M76.11,116.37c-3.37,1.95-4-.12-4-1.34s.45-3.89,3.8-5.82c2.08-1.2,3.26-1,3.51.18l1.68-1c-.25-1.94-2-2.66-5.2-.8-3.46,2-5.48,5.19-5.47,8.37s2.14,4,5.64,1.94a17.6,17.6,0,0,0,5-4.47v-3.84l-5.29,3v1.48L79.57,112v1.6a13.44,13.44,0,0,1-3.46,2.76m29.62-15.82,0-9.83-1.56.9,0,4.12L96.83,100V95.85l-1.56.9,0,9.83,1.55-.9v-4.11l7.33-4.23v4.11l1.56-.9m11.85-6.86,0-8.13-1.52.87v3.25a7,7,0,0,1-3.8,5.82c-2.29,1.32-3,.62-3-1.45V90.37l-1.52.88v4.06c0,3.16,1.65,3.43,4.14,2a10.25,10.25,0,0,0,4.22-4.55v1.82l1.52-.88M93.2,101.15V99.62l-3.61,2.09V99.22l-1.52,1.47v1.9L86,103.81v1.52l2.11-1.22v3.28c0,2.81.71,3.22,2.94,1.93a19.67,19.67,0,0,0,2.21-1.5v-1.49a20.45,20.45,0,0,1-1.85,1.24c-1.49.86-1.76.58-1.77-1.2v-3.14l3.62-2.08m-8.76,11.69,0-8.15-1.52.87,0,8.15,1.52-.87m0-9.23v-2l-1.52.88v2l1.52-.88" style="fill: #302f30"/>
    <path d="M124.6,82.78c2.16-1.25,3.29-.82,3.29.89s-1.11,3.45-3.28,4.7-3.4.89-3.41-.83S122.42,84,124.6,82.78Z" style="fill: #302f30"/>
    <path d="M117.56,85.56l0,8.13-1.52.88V92.75a10.25,10.25,0,0,1-4.22,4.55c-2.49,1.44-4.09,1.17-4.14-2V91.25l1.52-.88v3.68c0,2.07.74,2.77,3,1.45a7,7,0,0,0,3.8-5.82V86.43Z" style="fill: #c5c5c5"/>
  </g>
</svg>
