<svg xmlns="http://www.w3.org/2000/svg" xmlns:xlink="http://www.w3.org/1999/xlink" viewBox="0 0 434.28 251.28">
  <defs>
    <clipPath id="a" transform="translate(85.82 15.1)">
      <rect width="200" height="200" style="fill: none"/>
    </clipPath>
  </defs>
  <title>html_1</title>
  <rect x="85.82" y="15.1" width="200" height="200" style="fill: #f09623"/>
  <g style="clip-path: url(#a)">
    <g style="isolation: isolate">
      <ellipse cx="57.94" cy="7.15" rx="4.48" ry="7.73" transform="translate(136.44 80.16) rotate(-89.84)" style="fill: #35a2bd"/>
      <path d="M57.54-6.6,333.79,152.89l-23.33,13.56L77.6,32,34.21,7Zm10.62,26a12,12,0,0,0,10.92,0c3-1.74,3-4.58,0-6.32a12,12,0,0,0-10.93,0c-3,1.74-3,4.58,0,6.32m15.66,9a12.07,12.07,0,0,0,10.92,0c3-1.75,3-4.59,0-6.33a12,12,0,0,0-10.93,0c-3,1.74-3,4.57,0,6.33M52.49,10.31a12,12,0,0,0,10.93,0c3-1.74,3-4.58,0-6.33A12.07,12.07,0,0,0,52.46,4c-3,1.75-3,4.59,0,6.33" transform="translate(85.82 15.1)" style="fill: #443283"/>
      <ellipse cx="89.26" cy="25.23" rx="4.48" ry="7.73" transform="translate(149.59 129.52) rotate(-89.84)" style="fill: #cc6475"/>
      <polygon points="163.3 94.18 157.86 97.35 134.16 83.66 139.6 80.5 163.3 94.18" style="fill: #2b3663"/>
      <polygon points="163.41 47.11 58.04 108.34 14.66 83.3 120.03 22.06 163.41 47.11" style="fill: #35a2bd"/>
      <polygon points="144.09 115.53 138.65 118.7 106.15 99.94 111.6 96.77 144.09 115.53" style="fill: #2b3663"/>
      <polygon points="167.61 139.93 162.17 143.09 96.81 105.36 102.26 102.2 167.61 139.93" style="fill: #2b3663"/>
      <polygon points="266.08 153.52 260.64 156.69 188.82 115.22 194.26 112.06 266.08 153.52" style="fill: #2b3663"/>
      <polygon points="305.05 154.4 299.6 157.56 232.2 118.64 237.64 115.48 305.05 154.4" style="fill: #2b3663"/>
      <polygon points="177.12 156.23 171.67 159.4 87.47 110.79 92.92 107.62 177.12 156.23" style="fill: #2b3663"/>
      <polygon points="340.65 164.13 335.2 167.3 162.16 67.39 167.6 64.22 340.65 164.13" style="fill: #2b3663"/>
      <polygon points="293.97 191.26 288.52 194.42 221.65 155.82 227.1 152.65 293.97 191.26" style="fill: #2b3663"/>
      <path d="M58.39-15.1,348.46,152.38l-144.21,83.8L-85.82,68.71ZM204.24,234.33l141-82L58.4-13.24l-141,81.95L204.24,234.33" transform="translate(85.82 15.1)" style="fill: #4c3c88"/>
      <ellipse cx="73.6" cy="16.19" rx="4.48" ry="7.73" transform="translate(143.02 104.84) rotate(-89.84)" style="fill: #d9881e"/>
      <path d="M77.6,32,310.46,166.45,205.08,227.69-27.78,93.25ZM249.39,152.2l5.44-3.16-173-99.91-5.45,3.16,173,99.91m-37.34,21.7,5.44-3.16L90.75,97.56l-5.44,3.17L212.05,173.9M63.11,60l-5.45,3.17L167,126.26l5.44-3.16L63.11,60M85.85,144.3l5.45-3.16L7.1,92.53,1.66,95.69,85.85,144.3m94.41-5.87L108.45,97,103,100.13l71.82,41.46,5.44-3.16m-33.88-34.88,67.41,38.92,5.44-3.17-67.4-38.91-5.45,3.16m56.33,75.78,5.44-3.17-66.87-38.6-5.44,3.16,66.87,38.61M72.45,54.56,67,57.72l66.61,38.46L139.06,93,72.45,54.56m-56,32.54L11,90.27,76.35,128l5.44-3.17L16.44,87.1m94.47,50,5.44-3.16L67.91,106l-5.45,3.16,48.45,28M25.78,81.67l-5.44,3.17L52.83,103.6l5.45-3.16L25.78,81.67m28-16.27-5.44,3.17L72,82.25l5.45-3.16L53.78,65.4" transform="translate(85.82 15.1)" style="fill: #fff"/>
      <polygon points="224.87 108.11 219.43 111.27 152.82 72.81 158.26 69.65 224.87 108.11" style="fill: #2b3663"/>
      <polygon points="258.24 138.19 252.79 141.35 143.48 78.24 148.93 75.08 258.24 138.19" style="fill: #2b3663"/>
      <polygon points="202.17 149.06 196.72 152.23 148.28 124.26 153.72 121.09 202.17 149.06" style="fill: #2b3663"/>
      <polygon points="303.31 185.83 297.86 189 171.12 115.82 176.57 112.66 303.31 185.83" style="fill: #2b3663"/>
    </g>
  </g>
  <g>
    <g>
      <polygon points="203.76 38.53 203.82 58 220.76 48.22 221.03 140.75 150.92 181.22 150.61 69.22 203.76 38.53" style="fill: #4b3f86"/>
      <polygon points="203.76 38.53 220.76 48.22 203.82 58 203.76 38.53" style="fill: #1f1442"/>
    </g>
    <polygon points="220.84 130.23 220.9 151.19 150.79 191.66 150.74 170.7 220.84 130.23" style="fill: #c87d1a"/>
    <g>
      <polygon points="182.44 95.24 182.46 101.88 174.9 111.27 182.49 111.89 182.5 118.59 165.87 116.49 182.44 95.24" style="fill: #c5c5c5"/>
      <polygon points="189.14 91.38 205.78 93.44 189.2 114.73 189.18 108.03 196.74 98.66 189.16 98.01 189.14 91.38" style="fill: #c5c5c5"/>
    </g>
    <g>
      <polygon points="170.06 168.11 170.07 169.38 170.07 170.65 170.07 171.93 170.08 173.2 170.08 174.47 170.09 175.74 168.97 176.38 167.87 177.02 167.87 175.75 167.86 174.48 167.86 173.21 166.75 173.85 166.75 175.12 166.76 176.4 166.76 177.66 165.65 178.31 164.54 178.94 164.54 177.67 164.54 176.4 164.53 175.13 164.53 173.85 164.53 172.57 164.52 171.31 165.63 170.67 166.74 170.03 166.74 171.3 166.75 172.57 167.86 171.93 167.85 170.65 167.85 169.38 168.95 168.75 170.06 168.11" style="fill: #121950"/>
      <polygon points="177.82 163.63 177.83 164.9 176.72 165.53 175.61 166.18 175.61 167.45 175.62 168.73 175.62 170 175.63 171.27 175.63 172.54 174.52 173.19 173.41 173.82 173.41 172.55 173.41 171.28 173.4 170.01 173.4 168.73 173.4 167.46 172.28 168.1 171.17 168.74 171.17 167.47 172.28 166.83 173.39 166.19 174.5 165.55 175.61 164.91 176.72 164.26 177.82 163.63" style="fill: #121950"/>
      <polygon points="186.69 158.51 186.69 159.78 186.7 161.05 186.7 162.33 186.71 163.6 186.71 164.88 186.71 166.14 185.6 166.79 184.5 167.42 184.49 166.15 184.49 164.88 184.49 163.61 183.38 164.25 183.38 165.52 182.27 166.16 182.27 164.89 181.16 165.53 181.16 166.8 181.17 168.07 181.17 169.34 180.06 169.99 178.96 170.62 178.95 169.35 178.95 168.08 178.94 166.81 178.94 165.53 178.94 164.25 178.93 162.99 180.04 162.35 181.15 161.71 181.15 162.98 182.26 162.34 182.27 163.61 183.37 162.97 183.37 161.7 184.48 161.06 184.47 159.79 185.58 159.15 186.69 158.51" style="fill: #121950"/>
      <polygon points="190.02 156.59 190.02 157.86 190.02 159.13 190.03 160.41 190.03 161.68 190.03 162.96 191.14 162.32 192.25 161.68 193.36 161.03 193.37 162.3 192.25 162.94 191.14 163.59 190.04 164.22 188.93 164.87 187.82 165.5 187.82 164.23 187.82 162.96 187.81 161.69 187.81 160.41 187.81 159.13 187.8 157.87 188.91 157.23 190.02 156.59" style="fill: #121950"/>
      <polygon points="205.53 147.63 205.53 148.9 204.43 149.54 203.32 150.18 202.22 150.81 202.22 152.09 203.32 151.45 204.43 150.81 205.54 150.18 205.54 151.45 205.55 152.72 205.55 154 205.55 155.27 204.45 155.9 203.34 156.55 202.23 157.18 201.12 157.82 200.01 158.47 200.01 157.2 201.12 156.56 202.23 155.91 203.33 155.28 203.33 154 203.33 152.73 202.22 153.37 201.11 154.01 200 154.65 200 153.38 199.99 152.1 199.99 150.83 201.1 150.19 202.21 149.55 203.32 148.91 204.43 148.27 205.53 147.63" style="fill: #121950"/>
    </g>
  </g>
</svg>
