<svg xmlns="http://www.w3.org/2000/svg" xmlns:xlink="http://www.w3.org/1999/xlink" viewBox="0 0 200 200">
  <defs>
    <clipPath id="a">
      <rect width="200" height="200" style="fill: none"/>
    </clipPath>
  </defs>
  <title>html_3Mesa de trabajo 1</title>
  <rect width="200" height="200" style="fill: #f09623"/>
  <g style="clip-path: url(#a)">
    <g style="isolation: isolate">
      <ellipse cx="57.94" cy="7.15" rx="4.48" ry="7.73" transform="translate(50.63 65.07) rotate(-89.84)" style="fill: #35a2bd"/>
      <path d="M57.54-6.6,333.79,152.89l-23.33,13.56L77.6,32,34.21,7Zm10.62,26a12,12,0,0,0,10.92,0c3-1.74,3-4.58,0-6.32a12,12,0,0,0-10.93,0c-3,1.74-3,4.58,0,6.32m15.66,9a12.07,12.07,0,0,0,10.92,0c3-1.75,3-4.59,0-6.33a12,12,0,0,0-10.93,0c-3,1.74-3,4.57,0,6.33M52.49,10.31a12,12,0,0,0,10.93,0c3-1.74,3-4.58,0-6.33A12.07,12.07,0,0,0,52.46,4c-3,1.75-3,4.59,0,6.33" style="fill: #443283"/>
      <ellipse cx="89.26" cy="25.23" rx="4.48" ry="7.73" transform="translate(63.78 114.42) rotate(-89.84)" style="fill: #cc6475"/>
      <polygon points="77.49 79.09 72.04 82.25 48.34 68.57 53.78 65.4 77.49 79.09" style="fill: #2b3663"/>
      <polygon points="77.6 32.01 -27.77 93.25 -71.16 68.2 34.21 6.96 77.6 32.01" style="fill: #35a2bd"/>
      <polygon points="58.28 100.44 52.83 103.6 20.34 84.84 25.78 81.67 58.28 100.44" style="fill: #2b3663"/>
      <polygon points="81.79 124.83 76.35 128 11 90.27 16.44 87.1 81.79 124.83" style="fill: #2b3663"/>
      <polygon points="180.26 138.43 174.82 141.59 103 100.13 108.45 96.96 180.26 138.43" style="fill: #2b3663"/>
      <polygon points="219.23 139.3 213.79 142.47 146.38 103.55 151.83 100.39 219.23 139.3" style="fill: #2b3663"/>
      <polygon points="91.3 141.14 85.85 144.3 1.66 95.69 7.1 92.53 91.3 141.14" style="fill: #2b3663"/>
      <polygon points="254.83 149.04 249.39 152.2 76.34 52.29 81.79 49.13 254.83 149.04" style="fill: #2b3663"/>
      <polygon points="208.15 176.16 202.71 179.33 135.84 140.72 141.28 137.56 208.15 176.16" style="fill: #2b3663"/>
      <path d="M58.39-15.1,348.46,152.38l-144.21,83.8L-85.82,68.71ZM204.24,234.33l141-82L58.4-13.24l-141,81.95L204.24,234.33" style="fill: #4c3c88"/>
      <ellipse cx="73.6" cy="16.19" rx="4.48" ry="7.73" transform="translate(57.2 89.74) rotate(-89.84)" style="fill: #d9881e"/>
      <path d="M77.6,32,310.46,166.45,205.08,227.69-27.78,93.25ZM249.39,152.2l5.44-3.16-173-99.91-5.45,3.16,173,99.91m-37.34,21.7,5.44-3.16L90.75,97.56l-5.44,3.17L212.05,173.9M63.11,60l-5.45,3.17L167,126.26l5.44-3.16L63.11,60M85.85,144.3l5.45-3.16L7.1,92.53,1.66,95.69,85.85,144.3m94.41-5.87L108.45,97,103,100.13l71.82,41.46,5.44-3.16m-33.88-34.88,67.41,38.92,5.44-3.17-67.4-38.91-5.45,3.16m56.33,75.78,5.44-3.17-66.87-38.6-5.44,3.16,66.87,38.61M72.45,54.56,67,57.72l66.61,38.46L139.06,93,72.45,54.56m-56,32.54L11,90.27,76.35,128l5.44-3.17L16.44,87.1m94.47,50,5.44-3.16L67.91,106l-5.45,3.16,48.45,28M25.78,81.67l-5.44,3.17L52.83,103.6l5.45-3.16L25.78,81.67m28-16.27-5.44,3.17L72,82.25l5.45-3.16L53.78,65.4" style="fill: #fff"/>
      <polygon points="139.06 93.01 133.61 96.18 67 57.72 72.45 54.56 139.06 93.01" style="fill: #2b3663"/>
      <polygon points="172.42 123.1 166.98 126.26 57.66 63.15 63.11 59.98 172.42 123.1" style="fill: #2b3663"/>
      <polygon points="116.35 133.97 110.91 137.13 62.46 109.16 67.91 106 116.35 133.97" style="fill: #2b3663"/>
      <polygon points="217.49 170.74 212.05 173.9 85.31 100.73 90.75 97.56 217.49 170.74" style="fill: #2b3663"/>
    </g>
  </g>
  <g>
    <g>
      <polygon points="117.95 23.43 118 42.9 134.95 33.12 135.21 125.66 65.11 166.13 64.79 54.12 117.95 23.43" style="fill: #4b3f86"/>
      <polygon points="117.95 23.43 134.95 33.12 118 42.9 117.95 23.43" style="fill: #1f1442"/>
    </g>
    <polygon points="135.02 115.13 135.08 136.09 64.98 176.57 64.92 155.61 135.02 115.13" style="fill: #c87d1a"/>
    <g>
      <polygon points="96.62 80.15 96.64 86.79 89.08 96.18 96.67 96.8 96.69 103.5 80.05 101.39 96.62 80.15" style="fill: #c5c5c5"/>
      <polygon points="103.32 76.28 119.96 78.35 103.39 99.63 103.37 92.93 110.92 83.56 103.34 82.92 103.32 76.28" style="fill: #c5c5c5"/>
    </g>
    <g>
      <polygon points="84.25 153.01 84.25 154.28 84.25 155.56 84.26 156.83 84.26 158.1 84.27 159.38 84.27 160.65 83.16 161.29 82.05 161.93 82.05 160.66 82.05 159.38 82.04 158.11 80.93 158.75 80.94 160.02 80.94 161.3 80.94 162.57 79.83 163.21 78.73 163.85 78.72 162.58 78.72 161.3 78.72 160.03 78.71 158.76 78.71 157.48 78.71 156.21 79.81 155.57 80.92 154.93 80.92 156.2 80.93 157.48 82.04 156.84 82.04 155.56 82.03 154.29 83.14 153.65 84.25 153.01" style="fill: #121950"/>
      <polygon points="92.01 148.53 92.01 149.8 90.91 150.44 89.79 151.08 89.8 152.36 89.8 153.63 89.81 154.9 89.81 156.18 89.81 157.45 88.7 158.09 87.6 158.73 87.59 157.46 87.59 156.18 87.58 154.91 87.58 153.64 87.58 152.36 86.47 153 85.36 153.64 85.35 152.37 86.46 151.73 87.58 151.09 88.68 150.45 89.79 149.81 90.9 149.17 92.01 148.53" style="fill: #121950"/>
      <polygon points="100.87 143.41 100.88 144.68 100.88 145.96 100.89 147.23 100.89 148.5 100.89 149.78 100.9 151.05 99.78 151.69 98.68 152.33 98.68 151.06 98.67 149.78 98.67 148.51 97.56 149.16 97.56 150.42 96.46 151.06 96.45 149.79 95.34 150.43 95.35 151.7 95.35 152.98 95.35 154.25 94.24 154.89 93.14 155.53 93.14 154.26 93.13 152.98 93.13 151.71 93.12 150.44 93.12 149.16 93.12 147.89 94.22 147.25 95.33 146.61 95.34 147.88 96.45 147.24 96.45 148.52 97.56 147.88 97.55 146.6 98.66 145.96 98.66 144.69 99.76 144.05 100.87 143.41" style="fill: #121950"/>
      <polygon points="104.2 141.49 104.2 142.76 104.21 144.04 104.21 145.31 104.22 146.58 104.22 147.86 105.32 147.22 106.43 146.58 107.55 145.94 107.55 147.21 106.44 147.85 105.33 148.49 104.22 149.13 103.11 149.77 102.01 150.41 102 149.14 102 147.86 102 146.59 101.99 145.32 101.99 144.04 101.98 142.77 103.09 142.13 104.2 141.49" style="fill: #121950"/>
      <polygon points="119.72 132.53 119.72 133.8 118.61 134.44 117.5 135.08 116.4 135.72 116.4 137 117.51 136.36 118.62 135.72 119.72 135.08 119.73 136.36 119.73 137.63 119.73 138.9 119.74 140.17 118.63 140.81 117.52 141.45 116.42 142.09 115.31 142.73 114.19 143.37 114.19 142.1 115.3 141.46 116.41 140.82 117.52 140.18 117.51 138.91 117.51 137.63 116.41 138.27 115.3 138.91 114.18 139.56 114.18 138.28 114.18 137 114.17 135.73 115.28 135.09 116.39 134.45 117.5 133.81 118.61 133.17 119.72 132.53" style="fill: #121950"/>
    </g>
  </g>
</svg>
