<svg xmlns="http://www.w3.org/2000/svg" xmlns:xlink="http://www.w3.org/1999/xlink" viewBox="0 0 200 200">
  <defs>
    <clipPath id="a">
      <rect width="200" height="200" style="fill: none"/>
    </clipPath>
  </defs>
  <title>js_3Mesa de trabajo 1</title>
  <g>
    <rect width="200" height="200" style="fill: #3eb2d1"/>
    <g style="clip-path: url(#a)">
      <g>
        <g style="isolation: isolate">
          <polygon points="43.34 36.01 43.05 137.72 6.84 116.82 7.13 15.11 43.34 36.01" style="fill: #2d1f61"/>
          <path d="M7.19-7.43l186,107.37-.06,22.54L43.34,36,7.13,15.1ZM31.27,23c2.53,1.46,4.59.28,4.59-2.62a10,10,0,0,0-4.56-7.9c-2.53-1.46-4.58-.28-4.59,2.62A10.07,10.07,0,0,0,31.27,23M18.2,15.48c2.53,1.46,4.58.28,4.59-2.62A10,10,0,0,0,18.23,5c-2.53-1.46-4.58-.29-4.59,2.61a10,10,0,0,0,4.56,7.9M44.34,30.57c2.53,1.46,4.58.29,4.59-2.62a10,10,0,0,0-4.56-7.89c-2.53-1.46-4.58-.29-4.59,2.61a10.06,10.06,0,0,0,4.56,7.9" style="fill: #030b3c"/>
          <path d="M44.37,20.06A10,10,0,0,1,48.93,28c0,2.91-2.06,4.08-4.59,2.62a10.06,10.06,0,0,1-4.56-7.9C39.79,19.77,41.84,18.6,44.37,20.06Z" style="fill: #904651"/>
          <polygon points="121.29 147.44 121.28 152.69 84.71 131.58 84.72 126.33 121.29 147.44" style="fill: #192044"/>
          <polygon points="103.33 91.95 103.32 97.2 53.05 68.17 53.06 62.92 103.33 91.95" style="fill: #192044"/>
          <polygon points="102.24 145.46 102.22 150.72 52.89 122.24 52.91 116.98 102.24 145.46" style="fill: #192044"/>
          <polygon points="183.6 165.36 183.58 170.62 87.92 115.39 87.93 110.13 183.6 165.36" style="fill: #192044"/>
          <polygon points="116.43 162.68 116.41 167.94 52.87 131.25 52.88 125.99 116.43 162.68" style="fill: #192044"/>
          <polygon points="163.85 126.89 163.84 132.14 112.96 102.77 112.97 97.51 163.85 126.89" style="fill: #192044"/>
          <polygon points="70.89 91.26 70.88 96.53 52.99 86.2 53.01 80.94 70.89 91.26" style="fill: #192044"/>
          <polygon points="183.7 129.31 183.68 134.57 53.07 59.16 53.09 53.9 183.7 129.31" style="fill: #192044"/>
          <path d="M2.75-17.12,2.36,121.36l194.9,112.53.39-138.48Zm193.8,249.78L3.07,121,3.45-15.89,196.93,95.81l-.38,136.85" style="fill: #322764"/>
          <polygon points="52.92 113.23 77.44 127.38 77.45 122.13 52.93 107.97 52.92 113.23" style="fill: #192044"/>
          <path d="M18.23,5a10,10,0,0,1,4.56,7.89c0,2.9-2.06,4.08-4.59,2.62a10,10,0,0,1-4.56-7.9C13.65,4.68,15.7,3.51,18.23,5Z" style="fill: #177385"/>
          <polygon points="135.54 119.57 135.53 124.82 53.02 77.18 53.04 71.93 135.54 119.57" style="fill: #192044"/>
          <polygon points="148.47 136.06 148.46 141.31 94.25 110.02 94.26 104.76 148.47 136.06" style="fill: #192044"/>
        </g>
        <polygon points="183.57 174.37 183.56 179.63 133.08 150.49 133.1 145.23 183.57 174.37" style="fill: #192044"/>
        <path d="M43.34,36,193.1,122.48l-.29,101.71L43.05,137.73Zm140.34,98.56,0-5.26L53.09,53.9l0,5.26,130.61,75.41m-.1,36.05,0-5.26L87.93,110.13v5.26l95.66,55.23M53,71.93l0,5.25,82.51,47.64v-5.25L53,71.93m63.37,96,0-5.26L52.88,126v5.26l63.54,36.69m32.06-31.88-54.21-31.3V110l54.21,31.3v-5.26M113,102.76l50.88,29.38v-5.25L113,97.51v5.25m70.59,76.87,0-5.26L133.1,145.23l0,5.26,50.47,29.14M53.06,62.92v5.25l50.27,29V92l-50.27-29M52.91,117l0,5.26,49.33,28.48,0-5.26L52.91,117m68.37,35.71v-5.25L84.72,126.33v5.25l36.57,21.11M52.93,108v5.26l24.52,14.15v-5.25L52.93,108m.08-27V86.2L70.88,96.52V91.26L53,80.94" style="fill: #707171"/>
        <path d="M31.3,12.51a10,10,0,0,1,4.56,7.9c0,2.9-2.06,4.08-4.59,2.62a10.07,10.07,0,0,1-4.56-7.9C26.72,12.23,28.77,11.05,31.3,12.51Z" style="fill: #985f0f"/>
      </g>
    </g>
    <g>
      <g style="isolation: isolate">
        <polygon points="105.67 140.41 105.67 141.69 104.56 142.33 103.45 142.97 102.34 143.61 102.34 144.88 103.46 144.24 104.57 143.6 105.67 142.96 105.67 144.24 105.68 145.51 105.68 146.78 105.69 148.06 104.58 148.7 103.47 149.34 102.36 149.98 101.25 150.62 100.14 151.26 100.14 149.98 100.14 148.71 101.25 148.06 102.35 147.43 102.36 148.7 103.47 148.06 103.46 146.78 103.46 145.52 102.35 146.16 101.24 146.79 100.13 147.44 100.13 146.16 100.13 144.89 100.12 143.61 101.23 142.97 102.34 142.34 103.45 141.69 104.56 141.05 105.67 140.41" style="fill: #121950"/>
        <polygon points="99.02 144.25 99.02 145.53 99.03 146.8 99.03 148.07 99.03 149.34 99.04 150.62 99.04 151.9 97.93 152.54 96.82 153.18 95.71 153.82 94.6 154.46 93.49 155.1 93.49 153.82 93.48 152.55 94.59 151.91 95.71 151.26 95.71 152.54 96.81 151.9 96.81 150.63 96.81 149.36 96.8 148.08 96.8 146.81 96.8 145.53 97.91 144.89 99.02 144.25" style="fill: #121950"/>
        <path d="M118,53,135,43.23l.2,71.58-70.1,40.47-.26-91L118,33.54ZM98.76,84.45V80.62C90.26,85.52,85,93.78,85,105.78s5.35,14.2,13.85,9.3l0-3.83c-5.52,3.18-9.69,2.11-9.72-7.85s4.1-15.75,9.65-19M82.61,93.77V89.94c-7.83,4.52-10,7.81-9.54,15,.32,5.27-1.57,6.39-4.21,7.91l0,4.41c2.63-1.52,4.52-2.58,4.24,3-.43,7.78,1.31,8.87,9.59,4.1v-3.83c-5.25,3-6.36,3-6-3.45.29-5.64-2.63-4.65-3.82-4v-.69c1.19-.69,4.1-3.06,3.78-8.37-.34-6,.76-7.3,6-10.33m49.28-12.86V76.5c-2.64,1.52-4.53,2.59-4.22-3,.4-7.72-1.76-8.51-9.62-4v3.83c5.25-3,6.36-3,6,3.37-.28,5.65,2.62,4.66,3.82,4v.69c-1.2.69-4.1,3.06-3.78,8.36.34,6-.77,7.38-6,10.41v3.83c8.3-4.8,10-7.89,9.56-15.16-.34-5.22,1.55-6.35,4.19-7.87m-30,32.4c8.49-4.9,13.78-13.2,13.75-25.23S110.29,74,101.81,78.85v3.83c5.57-3.22,9.72-2.17,9.75,7.76s-4.13,15.84-9.68,19v3.83" style="fill: #3e2d7b"/>
      </g>
      <polygon points="117.95 33.54 134.95 43.23 118 53.02 117.95 33.54" style="fill: #1f1442"/>
      <path d="M65.05,155.28l70.1-40.47.06,21-70.1,40.47Zm34-9.75v-1.28l-1.11.64-1.11.64v6.37l-1.1.64v-1.28l-1.11.65-1.12.64v2.55l1.11-.64,1.11-.64,1.11-.64,1.11-.64L99,151.9v-6.37m6.65-3.84v-1.28l-1.1.64-1.11.64-1.11.65-1.11.63-1.11.64v3.83l1.11-.64,1.11-.64,1.11-.64v2.54l-1.11.64v-1.27l-1.1.63-1.11.65v2.55l1.12-.64,1.1-.64,1.11-.64,1.11-.64,1.11-.64V143l-1.1.64-1.11.64-1.11.64v-1.27l1.11-.64,1.11-.64,1.11-.64" style="fill: #c87d1a"/>
      <path d="M82.6,89.94v3.83c-5.25,3-6.35,4.36-6,10.33.32,5.31-2.59,7.68-3.78,8.37v.69c1.19-.69,4.11-1.68,3.82,4-.31,6.43.8,6.48,6,3.45v3.83c-8.28,4.77-10,3.68-9.59-4.1.28-5.58-1.61-4.52-4.24-3l0-4.41c2.64-1.52,4.53-2.64,4.21-7.91C72.59,97.75,74.77,94.46,82.6,89.94Z" style="fill: #c5c5c5"/>
      <path d="M98.75,80.62v3.83c-5.55,3.2-9.68,9-9.65,19s4.2,11,9.72,7.85l0,3.83C90.35,120,85,117.8,85,105.78S90.26,85.52,98.75,80.62Z" style="fill: #c5c5c5"/>
      <path d="M101.81,78.85c8.48-4.9,13.8-2.76,13.84,9.23s-5.26,20.33-13.75,25.23v-3.83c5.55-3.2,9.7-9.08,9.68-19s-4.18-11-9.75-7.76Z" style="fill: #c5c5c5"/>
      <path d="M118,69.48c7.86-4.54,10-3.75,9.62,4-.31,5.64,1.58,4.57,4.22,3v4.41c-2.64,1.52-4.53,2.65-4.19,7.87.45,7.27-1.26,10.36-9.56,15.16v-3.83c5.24-3,6.35-4.36,6-10.41-.32-5.3,2.58-7.67,3.78-8.36v-.69c-1.2.69-4.1,1.68-3.82-4,.31-6.35-.8-6.4-6-3.37Z" style="fill: #c5c5c5"/>
    </g>
  </g>
</svg>
