<svg xmlns="http://www.w3.org/2000/svg" viewBox="0 0 60 60">
  <title>logo2Mesa de trabajo 1</title>
  <g>
    <path d="M60,30A30,30,0,0,1,33.06,59.84,28.11,28.11,0,0,1,30,60h0A30,30,0,1,1,60,30Z" style="fill: #4a3585"/>
    <path d="M29.85,6.49v2.8H29.7c-5.17,0-9.64,3.42-11.79,8.41l-.95.16C18.4,11.32,23.56,6.49,29.7,6.49Z" style="fill: #18205d"/>
    <path d="M42.43,17.85l-1-.16L39,17.3,36.94,17l-.27,0-2.08-.29-.52-.06c-.79-.1-1.55-.19-2.25-.25l-.14,0h-.13l-.53,0-.21,0-.46,0h-.5V6.49C35.91,6.57,41,11.37,42.43,17.85Z" style="fill: #051547"/>
    <path d="M29.85,9.29v3.53H29.7a12.33,12.33,0,0,0-9.36,4.49h0l-2.43.39c2.15-5,6.62-8.41,11.79-8.41Z" style="fill: #4a3585"/>
    <path d="M41.48,17.69,39,17.3,36.94,17l-.27,0-2.08-.29-.52-.06c-.79-.1-1.55-.19-2.25-.25l-.14,0h-.13l-.53,0-.21,0-.46,0h-.5V9.29C35,9.35,39.35,12.76,41.48,17.69Z" style="fill: #2c1b6d"/>
    <path d="M29.85,12.82v3.4H29.7a84.57,84.57,0,0,0-9.36,1.09,12.33,12.33,0,0,1,9.36-4.49Z" style="fill: #3ea7c2"/>
    <path d="M39,17.3,36.94,17l-.27,0-2.08-.29-.52-.06c-.79-.1-1.55-.19-2.25-.25l-.14,0h-.13l-.53,0-.21,0-.46,0h-.5v-3.4A12.3,12.3,0,0,1,39,17.3Z" style="fill: #2a8da4"/>
    <rect x="22.28" y="31.91" width="14.9" height="14.85" style="fill: #d55970"/>
    <path d="M29.67,17.85c0,.07,0,.13,0,.2v-.19Z" style="fill: #b21817"/>
    <polygon points="37.18 38.2 37.18 41.16 35.88 41.16 35.86 38.2 26.25 38.2 22.28 34.47 22.28 33.86 26.29 34.98 37.18 34.01 37.18 38.2" style="fill: #845860"/>
    <polygon points="39.9 31.66 33.64 37.05 25.67 37.05 19.66 31.4 22.83 26.33 25.71 36.36 33.65 36.36 36.85 26.33 39.9 31.66" style="fill: #2c1b6d"/>
    <polygon points="44.85 21.8 44.37 21.8 44.37 21.07 15.02 21.07 15.02 21.8 14.54 21.8 14.54 26.33 15.02 26.33 15.02 27.1 22.35 27.1 22.83 26.33 36.85 26.33 37.29 27.1 44.37 27.1 44.37 26.33 44.85 26.33 44.85 21.8" style="fill: #18205d"/>
    <polygon points="42.44 28.89 40.19 28.89 40.62 26.33 18.78 26.33 19.22 28.89 16.97 28.89 15.02 27.1 15.02 21.07 16.97 19.56 42.44 19.56 44.37 21.07 44.37 27.1 42.44 28.89" style="fill: #3ea7c2"/>
    <polygon points="19.22 28.89 16.97 28.89 15.02 27.1 17.46 27.1 17.46 25.12 18.74 26.11 19.22 28.89" style="fill: #18205d"/>
    <polygon points="40.19 28.89 42.44 28.89 44.37 27.1 41.95 27.1 41.95 25.12 40.67 26.11 40.19 28.89" style="fill: #18205d"/>
    <polygon points="16.94 21.07 16.97 19.56 15.02 21.07 16.94 21.07" style="fill: #18205d"/>
    <polygon points="42.45 21.07 42.45 19.56 44.4 21.07 42.45 21.07" style="fill: #18205d"/>
    <path d="M42.45,17.93v7.74H16.94V17.75l.95-.15,2.43-.36a90.06,90.06,0,0,1,9.35-1,92.51,92.51,0,0,1,9.35,1l2.43.37,1,.14C42.42,17.81,42.44,17.87,42.45,17.93Z" style="fill: #051547"/>
    <path d="M41.93,18.49v6.63H17.46V18.34l.92-.13,2.33-.31c2.94-.38,7.1-.87,9-.87s6,.48,9,.86L41,18.2l.91.13C41.9,18.38,41.91,18.44,41.93,18.49Z" style="fill: #2c1b6d"/>
    <path d="M40.65,18.6v5.33l-22.88.77V19.09l.91-.12L21,18.69c2.94-.35,6.79-1,8.66-1a67.2,67.2,0,0,1,7.68.35l2.33.29.92.11C40.62,18.5,40.64,18.55,40.65,18.6Z" style="fill: #e5912a"/>
    <polygon points="40.65 26.11 39.9 31.66 36.85 26.33 36.85 26.33 36.92 26.11 40.65 26.11" style="fill: #ce8333"/>
    <polygon points="36.92 26.11 36.85 26.33 22.83 26.33 19.66 31.4 18.74 26.11 36.92 26.11" style="fill: #e5912a"/>
    <polygon points="36.85 26.33 33.65 36.36 25.71 36.36 22.83 26.33 36.85 26.33" style="fill: #2a8da4"/>
    <polygon points="36.85 26.33 33.65 36.36 26.25 35.18 22.83 26.33 36.85 26.33" style="fill: #3ea7c2"/>
    <polygon points="36.92 26.11 36.85 26.33 36.85 26.33 36.1 28.7 22.83 26.33 22.77 26.11 36.92 26.11" style="fill: #051547"/>
    <path d="M34.87,40.36l-5,1.28-5.05-1.27c1.67-.09,3.39-.14,5.15-.14S33.27,40.28,34.87,40.36Z" style="fill: #d55970"/>
    <path d="M56,45A30,30,0,0,1,33.06,59.84,28.11,28.11,0,0,1,30,60h0A30,30,0,0,1,4,44.9a14,14,0,0,1,1.45-.74c3.53-1.62,8.92-2.87,15.29-3.49l1.59-.14c.82-.06,1.66-.12,2.51-.16l5.05,1.27h0l5-1.28,1,0h0l1.31.09,1.69.14c6.51.61,12,1.87,15.61,3.52A15.52,15.52,0,0,1,56,45Z" style="fill: #ce8333"/>
    <polygon points="38.87 39.33 38.87 46.76 37.55 46.01 29.84 41.64 34.87 40.36 35.87 40.1 37.18 39.77 38.87 39.33" style="fill: #4a3585"/>
    <polygon points="29.84 41.64 21.97 46.04 20.69 46.76 20.69 39.33 24.79 40.37 29.84 41.64" style="fill: #2c1b6d"/>
    <path d="M37.55,46,33.06,59.84A28.11,28.11,0,0,1,30,60h0a30.21,30.21,0,0,1-3.18-.17L23,49,22,46l.31-.17L27,43.22l2.82-1.58h0l3.86,2.19,3.48,2h0Z" style="fill: #2a8da4"/>
    <path d="M30,60a30.21,30.21,0,0,1-3.18-.17L23,49,22,46l.31-.17L27,43.22l2.82-1.58h0l0,5.12,0,3.9Z" style="fill: #d55970"/>
    <polygon points="33.69 45.88 29.92 50.95 25.85 45.9 29.84 41.64 33.69 45.88" style="fill: #e5912a"/>
    <polygon points="21.97 46.04 29.84 41.64 22.99 48.95 21.97 46.04" style="fill: #18205d"/>
  </g>
</svg>
