<svg id="Capa_1" data-name="Capa 1" xmlns="http://www.w3.org/2000/svg" viewBox="0 0 216.19 216.19">
  <defs>
    <style>
      .cls-1 {
        fill: #4e378e;
      }

      .cls-2 {
        fill: #281d4f;
      }

      .cls-3 {
        fill: #1b2261;
      }

      .cls-4 {
        fill: #091649;
      }

      .cls-5 {
        fill: #301f74;
      }

      .cls-6 {
        fill: #3eb2d1;
      }

      .cls-7 {
        fill: #2995af;
      }

      .cls-8 {
        fill: #e35d75;
      }

      .cls-9 {
        fill: #bd0c14;
      }

      .cls-10 {
        fill: #865962;
      }

      .cls-11 {
        fill: #f09623;
      }

      .cls-12 {
        fill: #d78630;
      }
    </style>
  </defs>
  <title>perfil</title>
  <path class="cls-1" d="M216.17,108.09a108,108,0,0,1-97.06,107.54,108.75,108.75,0,0,1-11,.56h0a105.24,105.24,0,0,1-11.43-.61A108.09,108.09,0,1,1,216.17,108.09Z" transform="translate(0.02 0)"/>
  <path class="cls-2" d="M203.54,108.09a95.38,95.38,0,0,1-95.46,95.47h0A91.18,91.18,0,0,1,98,203a95.46,95.46,0,1,1,105.58-94.93Z" transform="translate(0.02 0)"/>
  <path class="cls-3" d="M107.51,23.38V33.46H107c-18.62,0-34.73,12.34-42.46,30.31l-3.43.57c5.2-23.54,23.77-41,45.89-41Z" transform="translate(0.02 0)"/>
  <path class="cls-4" d="M152.85,64.32l-3.42-.57c-2.2-.37-5.26-.86-8.77-1.4l-7.58-1.14-1-.14c-2.47-.35-5-.7-7.47-1-.62-.08-1.24-.17-1.87-.24-2.86-.36-5.61-.67-8.11-.91l-.5,0-.49,0-1.9-.15L111,58.6l-1.65-.09-.77,0-1.07,0V23.38C129.38,23.66,147.69,41,152.85,64.32Z" transform="translate(0.02 0)"/>
  <path class="cls-1" d="M107.51,33.46V46.18H107c-13.19,0-25.11,6.2-33.7,16.2h0c-3.53.55-6.59,1-8.76,1.4,7.73-18,23.84-30.31,42.46-30.31Z" transform="translate(0.02 0)"/>
  <path class="cls-5" d="M149.43,63.75c-2.2-.37-5.26-.86-8.77-1.4l-7.58-1.14-1-.14c-2.47-.35-5-.7-7.47-1-.62-.08-1.24-.17-1.87-.24-2.86-.36-5.61-.67-8.11-.91l-.5,0-.49,0-1.9-.15L111,58.6l-1.65-.09-.77,0-1.07,0v-25C125.9,33.69,141.76,46,149.43,63.75Z" transform="translate(0.02 0)"/>
  <path class="cls-6" d="M107.51,46.18V58.45H107c-7,0-22.64,2.21-33.7,3.93,8.59-10,20.51-16.2,33.7-16.2Z" transform="translate(0.02 0)"/>
  <path class="cls-7" d="M140.66,62.35l-7.58-1.14-1-.14c-2.47-.35-5-.7-7.47-1-.62-.08-1.24-.17-1.87-.24-2.86-.36-5.61-.67-8.11-.91l-.5,0-.49,0-1.9-.15L111,58.6l-1.65-.09-.77,0-1.07,0V46.18C120.48,46.34,132.2,52.5,140.66,62.35Z" transform="translate(0.02 0)"/>
  <rect class="cls-8" x="80.28" y="114.98" width="53.67" height="53.49"/>
  <path class="cls-9" d="M106.9,64.31l.15.74v-.71l-.15,0Z" transform="translate(0.02 0)"/>
  <polygon class="cls-10" points="133.96 137.62 133.96 148.32 129.26 148.32 129.2 137.62 94.58 137.62 80.28 124.18 80.28 122.01 94.71 126.02 133.96 122.53 133.96 137.62"/>
  <polygon class="cls-5" points="143.78 114.07 121.22 133.5 92.51 133.5 70.83 113.12 82.26 94.86 92.64 131.02 121.26 131.02 132.79 94.86 143.78 114.07"/>
  <polygon class="cls-3" points="161.62 78.57 159.88 78.57 159.88 75.92 54.11 75.92 54.11 78.57 52.37 78.57 52.37 94.86 54.11 94.86 54.11 97.64 80.52 97.64 82.26 94.86 132.79 94.86 134.38 97.64 159.88 97.64 159.88 94.86 161.62 94.86 161.62 78.57"/>
  <polygon class="cls-6" points="152.91 104.08 144.8 104.08 146.36 94.86 67.66 94.86 69.26 104.08 61.15 104.08 54.11 97.64 54.11 75.92 61.15 70.49 152.91 70.49 159.88 75.92 159.88 97.64 152.91 104.08"/>
  <polygon class="cls-3" points="69.26 104.08 61.15 104.08 54.11 97.63 62.92 97.63 62.92 90.5 67.53 94.09 69.26 104.08"/>
  <polygon class="cls-3" points="144.8 104.08 152.91 104.08 159.88 97.64 151.13 97.63 151.13 90.5 146.53 94.09 144.8 104.08"/>
  <polygon class="cls-3" points="61.04 75.92 61.15 70.49 54.11 75.92 61.04 75.92"/>
  <polygon class="cls-3" points="152.95 75.92 152.95 70.49 159.99 75.92 152.95 75.92"/>
  <path class="cls-4" d="M152.93,64.62V92.48H61V64l3.43-.54c2.17-.34,5.24-.8,8.76-1.31,11.06-1.6,26.68-3.67,33.7-3.67s22.59,2.05,33.68,3.66c3.51.5,6.57,1,8.76,1.3l3.44.53Z" transform="translate(0.02 0)"/>
  <path class="cls-5" d="M151.05,66.63V90.5H62.9V66.07l3.29-.46c2.08-.29,5-.68,8.4-1.12,10.6-1.38,25.58-3.14,32.31-3.14s21.67,1.75,32.3,3.13c3.36.42,6.3.82,8.4,1.11l3.3.46Z" transform="translate(0.02 0)"/>
  <path class="cls-11" d="M146.44,67v19.2L64,89l0-20.22,3.29-.42c2.08-.26,5-.62,8.4-1,10.6-1.25,24.45-3.56,31.18-3.56a237.4,237.4,0,0,1,27.7,1.28c3.36.39,6.3.75,8.4,1l3.29.41C146.34,66.66,146.4,66.84,146.44,67Z" transform="translate(0.02 0)"/>
  <polygon class="cls-12" points="146.46 94.09 143.78 114.07 132.78 94.87 132.78 94.86 133.03 94.09 146.46 94.09"/>
  <polygon class="cls-11" points="133.03 94.09 132.78 94.86 82.26 94.86 70.83 113.13 67.53 94.09 133.03 94.09"/>
  <polygon class="cls-7" points="132.79 94.86 121.26 131.02 92.64 131.02 82.26 94.86 132.79 94.86"/>
  <polygon class="cls-6" points="132.79 94.86 121.26 131.02 94.59 126.77 82.26 94.86 132.79 94.86"/>
  <polygon class="cls-4" points="133.03 94.09 132.78 94.86 132.78 94.87 130.06 103.41 82.26 94.86 82.04 94.09 133.03 94.09"/>
  <path class="cls-8" d="M125.62,145.41,107.5,150l-18.21-4.59q9-.48,18.57-.48C113.91,145,119.85,145.12,125.62,145.41Z" transform="translate(0.02 0)"/>
  <path class="cls-12" d="M201.81,162a108.05,108.05,0,0,1-93.73,54.22h0a105.24,105.24,0,0,1-11.43-.61,108.11,108.11,0,0,1-82.4-53.8c1.58-.92,3.32-1.82,5.2-2.68,12.73-5.83,32.14-10.32,55.11-12.56q2.82-.27,5.72-.5c3-.23,6-.43,9-.59L107.5,150h0l18.11-4.63c1.22.06,2.41.12,3.6.2h0c1.58.09,3.15.2,4.71.31,2.05.15,4.08.33,6.08.51,23.47,2.2,43.32,6.74,56.27,12.67A58.91,58.91,0,0,1,201.81,162Z" transform="translate(0.02 0)"/>
  <polygon class="cls-1" points="140.04 141.72 140.04 168.47 135.31 165.79 107.53 150.04 125.64 145.41 129.24 144.49 133.96 143.28 140.04 141.72"/>
  <polygon class="cls-5" points="107.53 150.04 79.16 165.89 74.56 168.47 74.56 141.72 89.32 145.45 107.53 150.04"/>
  <path class="cls-7" d="M135.29,165.79l-16.18,49.84a108.75,108.75,0,0,1-11,.56h0a105.24,105.24,0,0,1-11.43-.61l-13.8-39.21L79.14,165.9l1.12-.63,17.07-9.55,10.16-5.67h0l13.89,7.88,12.54,7.1h0Z" transform="translate(0.02 0)"/>
  <path class="cls-8" d="M108.06,216.19a105.24,105.24,0,0,1-11.43-.61l-13.8-39.21L79.14,165.9l1.12-.63,17.07-9.55,10.16-5.67h0l.15,18.42.12,14.08Z" transform="translate(0.02 0)"/>
  <polygon class="cls-11" points="121.37 165.29 107.8 183.57 93.15 165.39 107.52 150.04 121.37 165.29"/>
  <polygon class="cls-3" points="79.16 165.9 107.52 150.04 82.85 176.38 79.16 165.9"/>
</svg>
