<svg id="Capa_1" data-name="Capa 1" xmlns="http://www.w3.org/2000/svg" xmlns:xlink="http://www.w3.org/1999/xlink" viewBox="0 0 1200.64 400.32"><defs><style>.cls-1{fill:none;}.cls-2{fill:#333e72;}.cls-3{fill:#f07387;}.cls-4{fill:#37bee1;}.cls-5{fill:#5f4bd7;}.cls-6{fill:#1e2364;}.cls-7{fill:#2b336d;}.cls-8{fill:#ff9b0f;}.cls-118,.cls-9{font-size:12px;}.cls-118,.cls-17,.cls-21,.cls-35,.cls-47,.cls-59,.cls-69,.cls-78,.cls-9,.cls-93{fill:#fff;}.cls-21,.cls-35,.cls-47,.cls-59,.cls-69,.cls-78,.cls-9,.cls-93{font-family:MonumentExtended-Regular, Monument Extended;}.cls-10{letter-spacing:-0.02em;}.cls-11{letter-spacing:-0.1em;}.cls-12{letter-spacing:-0.05em;}.cls-13{letter-spacing:-0.02em;}.cls-14{letter-spacing:-0.08em;}.cls-15{letter-spacing:0em;}.cls-16{letter-spacing:-0.02em;}.cls-18{fill:#2f3772;}.cls-19{fill:#5630b2;}.cls-20{fill:#331593;}.cls-21{font-size:4.96px;}.cls-22{letter-spacing:-0.04em;}.cls-23{letter-spacing:-0.02em;}.cls-24{letter-spacing:-0.05em;}.cls-25{letter-spacing:-0.03em;}.cls-26{letter-spacing:-0.01em;}.cls-27{letter-spacing:-0.02em;}.cls-28{letter-spacing:-0.02em;}.cls-29{letter-spacing:-0.05em;}.cls-30{letter-spacing:-0.1em;}.cls-31{letter-spacing:-0.09em;}.cls-32{letter-spacing:-0.04em;}.cls-33{letter-spacing:-0.02em;}.cls-34{letter-spacing:-0.08em;}.cls-35{font-size:4.06px;}.cls-36{letter-spacing:-0.11em;}.cls-37{letter-spacing:-0.02em;}.cls-38{letter-spacing:-0.05em;}.cls-39{letter-spacing:-0.04em;}.cls-40{letter-spacing:-0.01em;}.cls-41{letter-spacing:-0.03em;}.cls-42{letter-spacing:-0.02em;}.cls-43{letter-spacing:-0.03em;}.cls-44{letter-spacing:-0.02em;}.cls-45{letter-spacing:-0.05em;}.cls-46{letter-spacing:-0.11em;}.cls-47{font-size:3.2px;}.cls-48{letter-spacing:-0.04em;}.cls-49{letter-spacing:-0.02em;}.cls-50{letter-spacing:-0.05em;}.cls-51{letter-spacing:-0.02em;}.cls-52{letter-spacing:-0.03em;}.cls-53{letter-spacing:-0.02em;}.cls-54{letter-spacing:-0.04em;}.cls-55{letter-spacing:-0.04em;}.cls-56{letter-spacing:-0.01em;}.cls-57{letter-spacing:-0.01em;}.cls-58{letter-spacing:0em;}.cls-59{font-size:3.23px;}.cls-60{letter-spacing:-0.11em;}.cls-61{letter-spacing:-0.02em;}.cls-62{letter-spacing:-0.03em;}.cls-63{letter-spacing:-0.02em;}.cls-64{letter-spacing:0em;}.cls-65{letter-spacing:-0.04em;}.cls-66{letter-spacing:-0.01em;}.cls-67{letter-spacing:-0.04em;}.cls-68{letter-spacing:-0.05em;}.cls-69{font-size:2.63px;}.cls-70{letter-spacing:-0.04em;}.cls-71{letter-spacing:-0.01em;}.cls-72{letter-spacing:-0.01em;}.cls-73{letter-spacing:-0.04em;}.cls-74{letter-spacing:-0.05em;}.cls-75{letter-spacing:-0.05em;}.cls-76{letter-spacing:-0.02em;}.cls-77{letter-spacing:-0.02em;}.cls-78{font-size:4.48px;}.cls-78,.cls-89{letter-spacing:-0.02em;}.cls-79{letter-spacing:-0.03em;}.cls-80{letter-spacing:-0.02em;}.cls-81{letter-spacing:-0.06em;}.cls-82{letter-spacing:-0.21em;}.cls-83{letter-spacing:-0.03em;}.cls-84{letter-spacing:0em;}.cls-85{letter-spacing:-0.16em;}.cls-86{letter-spacing:0em;}.cls-87{letter-spacing:-0.04em;}.cls-88{letter-spacing:-0.11em;}.cls-90{letter-spacing:-0.03em;}.cls-91{letter-spacing:-0.02em;}.cls-92{letter-spacing:-0.07em;}.cls-93{font-size:3.02px;}.cls-94{letter-spacing:-0.01em;}.cls-95{letter-spacing:0em;}.cls-96{letter-spacing:-0.23em;}.cls-97{letter-spacing:-0.02em;}.cls-98{letter-spacing:-0.05em;}.cls-99{letter-spacing:-0.1em;}.cls-100{letter-spacing:-0.09em;}.cls-101{letter-spacing:-0.04em;}.cls-102{letter-spacing:-0.02em;}.cls-103{letter-spacing:-0.08em;}.cls-104{fill:#844704;}.cls-105{fill:#c97005;}.cls-106{fill:#b24258;}.cls-107{fill:#353535;}.cls-108{fill:#171e56;}.cls-109{fill:#171b4d;}.cls-110{fill:#101336;}.cls-111{fill:#131a4f;}.cls-112{fill:#19aacc;}.cls-113{fill:#303877;}.cls-114{fill:#c9c3e2;}.cls-115{fill:#1e1e1e;}.cls-116{fill:#636363;}.cls-117{fill:#5d46a5;}.cls-118{font-family:MyriadPro-Regular, Myriad Pro;}.cls-119{letter-spacing:0em;}.cls-120{letter-spacing:0em;}.cls-121{letter-spacing:0.01em;}.cls-122{clip-path:url(#clip-path);}.cls-123{fill:#dcdcdc;}.cls-124{isolation:isolate;}</style><clipPath id="clip-path" transform="translate(-359.54 -340.06)"><rect class="cls-1" x="1160.17" y="340.06" width="400" height="200"/></clipPath></defs><title>portada-inicial</title><rect class="cls-2" x="800.64" y="200" width="400" height="200"/><rect class="cls-3" x="800.64" width="400" height="200"/><rect class="cls-4" x="600.64" width="200" height="200"/><rect class="cls-4" x="400.64" width="200" height="400"/><rect class="cls-5" x="600.64" y="200" width="200" height="200"/><rect class="cls-6" x="400.64" width="200" height="200"/><rect class="cls-6" x="0.64" width="400" height="200"/><rect class="cls-4" x="200.64" y="200" width="200" height="200"/><rect class="cls-5" x="0.67" y="200.06" width="200" height="200"/><rect class="cls-7" x="25.8" y="13.44" width="352.82" height="165.46"/><circle class="cls-4" cx="41.21" cy="28.44" r="7"/><circle class="cls-3" cx="81.21" cy="28.44" r="7"/><circle class="cls-8" cx="61.21" cy="28.44" r="7"/><rect class="cls-2" x="41.21" y="47.44" width="140" height="7"/><rect class="cls-2" x="41.21" y="59.44" width="140" height="7"/><rect class="cls-2" x="41.21" y="71.44" width="140" height="7"/><rect class="cls-2" x="41.21" y="83.44" width="140" height="7"/><rect class="cls-2" x="41.21" y="95.44" width="140" height="7"/><rect class="cls-2" x="41.21" y="107.44" width="140" height="7"/><rect class="cls-2" x="41.21" y="119.44" width="140" height="7"/><rect class="cls-2" x="41.21" y="131.44" width="140" height="7"/><rect class="cls-2" x="41.21" y="143.44" width="140" height="7"/><text class="cls-9" transform="translate(215.62 34.97)"><tspan class="cls-10">N</tspan><tspan class="cls-11" x="12.34" y="0">a</tspan><tspan class="cls-12" x="22.44" y="0">v</tspan><tspan class="cls-13" x="33.79" y="0">i</tspan><tspan class="cls-10" x="37.15" y="0">g</tspan><tspan class="cls-14" x="48.58" y="0">a</tspan><tspan class="cls-15" x="58.9" y="0">t</tspan><tspan class="cls-16" x="67.96" y="0">i</tspan><tspan class="cls-10" x="71.32" y="0">o</tspan><tspan x="82.74" y="0">n</tspan></text><rect class="cls-17" x="209.21" y="48.44" width="156" height="2"/><ellipse class="cls-18" cx="700.14" cy="169.07" rx="88.58" ry="19.42"/><rect class="cls-19" x="656.08" y="20.8" width="47.37" height="13.26"/><rect class="cls-6" x="636.19" y="23.64" width="13.26" height="41.69"/><rect class="cls-8" x="641.92" y="16.27" width="57.79" height="4.74"/><rect class="cls-8" x="621.98" y="65.33" width="143.06" height="47.37"/><rect class="cls-18" x="624.82" y="68.17" width="137.37" height="41.69"/><rect class="cls-8" x="628.61" y="70.8" width="130.26" height="35.48"/><circle class="cls-20" cx="694.74" cy="89.54" r="6.63"/><rect class="cls-19" x="650.4" y="53.96" width="64.42" height="11.37"/><text class="cls-21" transform="translate(653.99 61.01) scale(0.62 1)"><tspan class="cls-22">A</tspan><tspan class="cls-23" x="5.41" y="0">p</tspan><tspan class="cls-24" x="10.13" y="0">r</tspan><tspan class="cls-23" x="13.44" y="0">e</tspan><tspan class="cls-25" x="18.08" y="0">n</tspan><tspan class="cls-26" x="22.82" y="0">d</tspan><tspan class="cls-27" x="27.59" y="0">ie</tspan><tspan class="cls-25" x="33.63" y="0">n</tspan><tspan class="cls-28" x="38.36" y="0">d</tspan><tspan x="43.09" y="0">o </tspan><tspan class="cls-29" x="49.88" y="0">J</tspan><tspan class="cls-30" x="54.67" y="0">a</tspan><tspan class="cls-31" x="58.84" y="0">v</tspan><tspan x="63.38" y="0">a</tspan><tspan class="cls-32" x="68.03" y="0">S</tspan><tspan class="cls-33" x="73.01" y="0">cr</tspan><tspan x="81.11" y="0">i</tspan><tspan class="cls-34" x="82.58" y="0">p</tspan><tspan class="cls-28" x="86.98" y="0">t</tspan><tspan x="90.64" y="0">:</tspan></text><rect class="cls-8" x="658.54" y="47.3" width="47.37" height="6.63"/><text class="cls-35" transform="translate(661 51.74) scale(0.86 1)"><tspan class="cls-36">w</tspan><tspan class="cls-37" x="5.69" y="0">e</tspan><tspan x="9.5" y="0">b </tspan><tspan class="cls-38" x="15.07" y="0">r</tspan><tspan class="cls-39" x="17.78" y="0">e</tspan><tspan class="cls-40" x="21.5" y="0">s</tspan><tspan class="cls-41" x="25.38" y="0">p</tspan><tspan class="cls-42" x="29.18" y="0">o</tspan><tspan class="cls-43" x="33.05" y="0">n</tspan><tspan class="cls-44" x="36.92" y="0">s</tspan><tspan class="cls-45" x="40.77" y="0">i</tspan><tspan class="cls-46" x="41.75" y="0">v</tspan><tspan x="45.39" y="0">e</tspan></text><rect class="cls-19" x="655.14" y="40.7" width="47.37" height="6.63"/><text class="cls-47" transform="translate(657.36 45.32) scale(0.82 1)"><tspan class="cls-48">A</tspan><tspan class="cls-49" x="3.49" y="0">p</tspan><tspan class="cls-50" x="6.54" y="0">r</tspan><tspan class="cls-51" x="8.68" y="0">e</tspan><tspan class="cls-52" x="11.68" y="0">n</tspan><tspan class="cls-53" x="14.74" y="0">d</tspan><tspan x="17.79" y="0">e a </tspan><tspan class="cls-51" x="26.41" y="0">p</tspan><tspan class="cls-50" x="29.46" y="0">r</tspan><tspan class="cls-54" x="31.6" y="0">o</tspan><tspan x="34.59" y="0">g</tspan><tspan class="cls-55" x="37.7" y="0">r</tspan><tspan class="cls-56" x="39.88" y="0">a</tspan><tspan class="cls-49" x="42.85" y="0">m</tspan><tspan class="cls-57" x="47.37" y="0">a</tspan><tspan class="cls-58" x="50.34" y="0">r</tspan></text><text class="cls-59" transform="translate(663.83 26.39)"><tspan class="cls-60">w</tspan><tspan class="cls-61" x="4.52" y="0">e</tspan><tspan x="7.54" y="0">b </tspan><tspan class="cls-62" x="11.96" y="0">c</tspan><tspan class="cls-63" x="14.91" y="0">o</tspan><tspan class="cls-64" x="17.98" y="0">n </tspan><tspan class="cls-65" x="0" y="3.87">HT</tspan><tspan class="cls-66" x="6.36" y="3.87">M</tspan><tspan x="10.39" y="3.87">L5 y </tspan><tspan class="cls-67" x="21.98" y="3.87">C</tspan><tspan class="cls-68" x="25.18" y="3.87">S</tspan><tspan x="28.41" y="3.87">S3</tspan></text><rect class="cls-8" x="661.77" y="34.07" width="47.37" height="6.63"/><text class="cls-69" transform="translate(662.33 38.11)"><tspan class="cls-70">HT</tspan><tspan class="cls-71" x="5.19" y="0">M</tspan><tspan x="8.47" y="0">L</tspan><tspan class="cls-72" x="10.65" y="0">5</tspan><tspan x="13.12" y="0">, </tspan><tspan class="cls-73" x="14.95" y="0">C</tspan><tspan class="cls-74" x="17.56" y="0">S</tspan><tspan x="20.19" y="0">S3 y </tspan><tspan class="cls-75" x="30.22" y="0">J</tspan><tspan class="cls-76" x="32.77" y="0">Q</tspan><tspan class="cls-77" x="35.43" y="0">ue</tspan><tspan class="cls-73" x="40.43" y="0">r</tspan><tspan x="42.23" y="0">y</tspan></text><text class="cls-78" transform="translate(641.78 63.69) rotate(-90) scale(0.86 1)">N<tspan class="cls-79" x="4.61" y="0">o</tspan><tspan class="cls-80" x="8.8" y="0">d</tspan><tspan class="cls-81" x="13.07" y="0">e</tspan><tspan class="cls-82" x="17.07" y="0">.</tspan><tspan class="cls-83" x="17.49" y="0">j</tspan><tspan class="cls-84" x="19.68" y="0">s </tspan><tspan class="cls-85" x="25.79" y="0">W</tspan><tspan x="32.35" y="0">e</tspan><tspan class="cls-86" x="36.55" y="0">b </tspan><tspan class="cls-87"><tspan x="0" y="5.38">D</tspan><tspan class="cls-88" x="4.37" y="5.38">ev</tspan><tspan class="cls-89" x="12.18" y="5.38">elop</tspan><tspan class="cls-90" x="26.17" y="5.38">m</tspan><tspan class="cls-91" x="32.44" y="5.38">e</tspan><tspan class="cls-92" x="36.64" y="5.38">n</tspan><tspan class="cls-84" x="40.75" y="5.38">t</tspan></tspan></text><text class="cls-93" transform="translate(652.43 19.47)"><tspan class="cls-94">N</tspan><tspan class="cls-95" x="3.14" y="0">i</tspan><tspan class="cls-96" x="4.04" y="0">n</tspan><tspan class="cls-97" x="6.31" y="0">j</tspan><tspan x="7.82" y="0">a </tspan><tspan class="cls-98" x="11.86" y="0">J</tspan><tspan class="cls-99" x="14.78" y="0">a</tspan><tspan class="cls-100" x="17.33" y="0">v</tspan><tspan x="20.09" y="0">a</tspan><tspan class="cls-101" x="22.93" y="0">S</tspan><tspan class="cls-102" x="25.97" y="0">cr</tspan><tspan class="cls-95" x="30.9" y="0">i</tspan><tspan class="cls-103" x="31.8" y="0">p</tspan><tspan x="34.49" y="0">t</tspan></text><polygon class="cls-104" points="650.4 158.99 648.33 158.99 642.82 112.83 657.98 112.83 650.4 158.99"/><polygon class="cls-104" points="735.66 158.99 733.6 158.99 728.09 112.83 743.24 112.83 735.66 158.99"/><polygon class="cls-105" points="640.92 176.17 638.08 176.17 630.5 112.7 651.35 112.7 640.92 176.17"/><polygon class="cls-105" points="744.19 176.17 741.35 176.17 733.77 112.7 754.61 112.7 744.19 176.17"/><circle class="cls-19" cx="693.74" cy="88.54" r="6.63"/><polygon class="cls-3" points="567.47 366.19 440.3 362.98 454.51 391.68 459.88 400 591.61 400 595.37 353.32 592.18 320.63 586.4 314.56 567.32 322.99 567.46 338.69 567.47 366.19"/><polygon class="cls-106" points="557.18 362.24 451.95 392.61 429.54 362.24 557.18 362.24"/><polygon class="cls-107" points="559.71 70.8 559.71 75.33 412.87 75.33 412.87 361.64 405.3 361.64 412.87 366.18 567.28 366.18 567.28 75.33 559.71 70.8"/><rect class="cls-5" x="405.3" y="70.8" width="154.41" height="291.49"/><rect class="cls-17" x="405.3" y="93.49" width="154.41" height="23.26"/><rect class="cls-107" x="475.34" y="80.52" width="25" height="1.02"/><ellipse class="cls-107" cx="468.87" cy="81.03" rx="2.76" ry="2.73"/><polygon class="cls-107" points="428.06 99.96 428.06 97.62 420.68 97.62 420.68 99.96 415.07 99.96 415.07 110.83 434.13 110.83 434.13 99.96 428.06 99.96"/><ellipse class="cls-17" cx="424.6" cy="105.09" rx="3.36" ry="3.33"/><polygon class="cls-107" points="534.69 103.27 550.49 99.39 543.28 113.83 542.1 106.45 534.69 103.27"/><path class="cls-106" d="M926.62,517.44l0,32.66,6.56-18.91c-1.74-10.49-4.51-20.85-6.44-31.19Z" transform="translate(-359.54 -340.06)"/><path class="cls-3" d="M943.21,484.86c-5.12-3.36-10.58,2.86-10.58,2.86l-5.8,7.22-.05,5.06c1.93,10.34,4.7,20.7,6.44,31.19l12.64-33.27S949.89,489.23,943.21,484.86Z" transform="translate(-359.54 -340.06)"/><path class="cls-106" d="M926.47,586.57v10.49l5.09-1.75,4.05-15.51C932.06,581.6,928.62,583.51,926.47,586.57Z" transform="translate(-359.54 -340.06)"/><path class="cls-106" d="M927.11,624l-.06,10.5c3.65-5.29,6.8-10.67,8.31-16.7C932.47,619.9,930,622,927.11,624Z" transform="translate(-359.54 -340.06)"/><polygon class="cls-106" points="567.46 339.51 581.06 317.04 567.32 322.99 567.46 339.51"/><rect class="cls-2" x="413.63" y="126.62" width="137.76" height="69.07"/><rect class="cls-2" x="413.63" y="200.72" width="137.76" height="69.07"/><rect class="cls-2" x="413.63" y="274.81" width="137.76" height="69.07"/><path class="cls-3" d="M935.61,579.8l5.08-19.5,0,0a9.68,9.68,0,0,0,.25-1.87c.23-6-5.1-11.17-11.91-11.43-5.6-.21-10.45,2.93-12.13,7.42l-22.74,39.37a7.29,7.29,0,0,0-1.63,4.58,7.61,7.61,0,0,0,7.74,7.48,7.8,7.8,0,0,0,6.38-3.25l19.84-16.76v.78C928.62,583.51,932.06,581.6,935.61,579.8Z" transform="translate(-359.54 -340.06)"/><path class="cls-3" d="M943.85,605.12a8.7,8.7,0,0,1,0,.89l-11.44,31.56L927,641.86l0-7.33c3.65-5.29,6.8-10.67,8.31-16.7-2.89,2.07-5.4,4.13-8.25,6.2v-.35L916,629.88a6.49,6.49,0,0,1-1.46.81l0,0h0a6.27,6.27,0,0,1-2.3.43,6.36,6.36,0,0,1-5-10.24h0l.09-.11a.86.86,0,0,1,.07-.1l19.16-23.62.08,0a10.51,10.51,0,0,1,17.3,8Z" transform="translate(-359.54 -340.06)"/><path class="cls-3" d="M951.72,660.68l-1.17-16.89c0-5.12-4.64-9.26-10.3-9.26a10.69,10.69,0,0,0-7.74,3.19L909.81,657a6.34,6.34,0,0,0-2.9,5.39,6.09,6.09,0,0,0,5.89,6.27,5.47,5.47,0,0,0,2.41-.56l25.39-11-2.81,4.32C942.47,660.92,947.07,660.74,951.72,660.68Z" transform="translate(-359.54 -340.06)"/><polygon class="cls-4" points="518.21 181.66 490.21 140.58 477.68 160.17 456.97 129.78 416.86 192.46 499.69 192.46 492.33 181.66 518.21 181.66"/><circle class="cls-8" cx="526.26" cy="148.2" r="16.33"/><polygon class="cls-4" points="519.76 329.89 491.76 288.81 479.23 308.39 458.52 278.01 418.41 340.69 501.24 340.69 493.88 329.89 519.76 329.89"/><circle class="cls-8" cx="527.81" cy="296.43" r="16.33"/><circle class="cls-8" cx="482.51" cy="233.6" r="25.21"/><polygon class="cls-5" points="474.36 221.99 490.65 233.24 474.36 245.22 474.36 221.99"/><path class="cls-3" d="M820.76,740.06H734.91l2.68-51,10.19-60.23,4.57-32.06,2.51-14.65v0a9.12,9.12,0,1,1,18.24,0c0,.5,7.42,97.85,7.42,97.85Z" transform="translate(-359.54 -340.06)"/><polygon class="cls-108" points="779.21 312.09 778.73 335.99 702.75 380.15 703.23 356.24 779.21 312.09"/><polygon class="cls-6" points="703.23 356.24 702.75 380.15 626.27 335.99 626.75 312.09 703.23 356.24"/><polygon class="cls-4" points="779.21 312.09 703.23 356.24 626.75 312.09 702.73 267.93 779.21 312.09"/><path class="cls-6" d="M1077.76,643.15c8.6,5,8.64,13,.1,18s-22.48,5-31.07,0-8.6-13-.06-18S1069.16,638.19,1077.76,643.15Z" transform="translate(-359.54 -340.06)"/><polygon class="cls-109" points="717.46 339.55 717.37 343.98 703.32 352.14 703.41 347.72 717.46 339.55"/><polygon class="cls-110" points="703.41 347.72 703.32 352.14 689.17 343.98 689.26 339.55 703.41 347.72"/><polygon class="cls-5" points="717.46 339.55 703.41 347.72 689.26 339.55 703.31 331.39 717.46 339.55"/><polygon class="cls-109" points="741.07 326.97 740.98 331.39 726.92 339.55 727.01 335.13 741.07 326.97"/><polygon class="cls-110" points="727.01 335.13 726.92 339.55 712.78 331.39 712.87 326.97 727.01 335.13"/><polygon class="cls-3" points="741.07 326.97 727.01 335.13 712.87 326.97 726.92 318.8 741.07 326.97"/><path class="cls-108" d="M1071.88,646.57c5.33,3.07,5.35,8.06.06,11.14s-13.93,3.09-19.26,0-5.33-8.08,0-11.15S1066.55,643.49,1071.88,646.57Z" transform="translate(-359.54 -340.06)"/><rect class="cls-108" x="689.25" y="244.14" width="27.11" height="66.26"/><path class="cls-6" d="M1072,578.62c5.32,3.08,5.35,8.07.06,11.15s-13.94,3.09-19.26,0-5.33-8.08,0-11.16S1066.66,575.55,1072,578.62Z" transform="translate(-359.54 -340.06)"/><polygon class="cls-2" points="200.64 400 200.64 200 400.64 200 200.64 400"/><polygon class="cls-2" points="0 199.68 200.64 199.68 200.64 400.32 0 199.68"/><path class="cls-3" d="M711.92,614.58a30.59,30.59,0,0,1-5.72,11.58,28.83,28.83,0,0,1-2.34,2.62l-45.68,45.68a19.3,19.3,0,0,1-6.56,6.56L646,686.7l-2.86-2.86a21.58,21.58,0,0,1-23.32-23.32l-2.86-2.86,5.67-5.67a20.18,20.18,0,0,1,2.89-3.68,19.29,19.29,0,0,1,3.68-2.88l44.9-44.91,1.34-1.34c.45-.45.92-.89,1.4-1.31a29.37,29.37,0,0,1,22.43-7.12,29.82,29.82,0,0,1,5.38,1.08l.76.24a9.21,9.21,0,0,1,6.18,6.18,30.66,30.66,0,0,1,.38,16.33Z" transform="translate(-359.54 -340.06)"/><path class="cls-6" d="M709.23,594.38a9.26,9.26,0,0,1,2.31,3.87,30.66,30.66,0,0,1-7.68,30.54l-45.67,45.67a19.75,19.75,0,0,1-2.89,3.68,19.23,19.23,0,0,1-3.67,2.88L646,686.7l-2.86-2.86A21.33,21.33,0,0,1,626,677.6Z" transform="translate(-359.54 -340.06)"/><polygon class="cls-6" points="273.98 305.46 261.61 298.04 230.57 312.69 234.95 317.07 261.32 318.12 273.98 305.46"/><polygon class="cls-3" points="298.95 330.43 306.37 342.8 291.71 373.83 287.33 369.46 286.29 343.09 298.95 330.43"/><polygon class="cls-6" points="279.9 318.12 282.56 322.82 253.73 352.77 250.39 346.05 279.9 318.12"/><path class="cls-8" d="M712.71,604.22a13.62,13.62,0,0,1-13.49-13.47,29.82,29.82,0,0,1,5.38,1.08l.76.24a9.21,9.21,0,0,1,6.18,6.18A30.3,30.3,0,0,1,712.71,604.22Z" transform="translate(-359.54 -340.06)"/><path class="cls-8" d="M702.41,626.44a25.79,25.79,0,0,1-25.62-28.57c-.48.42-.95.86-1.4,1.31l-1.34,1.34v.15A28.36,28.36,0,0,0,702.41,629c.42,0,.83,0,1.25,0l.2-.21a28.83,28.83,0,0,0,2.34-2.62A26.42,26.42,0,0,1,702.41,626.44Z" transform="translate(-359.54 -340.06)"/><path class="cls-8" d="M670.68,610.56l-31.13,31.13c-.28-1.15-.51-2.32-.68-3.51L640,637l28.58-28.6,1.06-1C670,608.46,670.3,609.52,670.68,610.56Z" transform="translate(-359.54 -340.06)"/><path class="cls-8" d="M672.14,614l-1,1-30.52,30.51c-.27-.77-.52-1.55-.74-2.35L641,642l29.22-29.22,1-1Q671.62,612.9,672.14,614Z" transform="translate(-359.54 -340.06)"/><path class="cls-8" d="M673.38,616.29l-1,1L642.65,647l-1,1c-.22-.52-.44-1-.64-1.58l1-1,29.61-29.62,1-1C672.84,615.34,673.11,615.82,673.38,616.29Z" transform="translate(-359.54 -340.06)"/><path class="cls-8" d="M674.55,618.17l-.94.94-30,30-1,1-.51-1.06,31.82-31.81C674.13,617.54,674.34,617.86,674.55,618.17Z" transform="translate(-359.54 -340.06)"/><path class="cls-8" d="M547,642.71a77.57,77.57,0,0,1-77.56,77.56l-1.38,0a77.26,77.26,0,0,1-30.5-6.82c-.64-.29-1.28-.59-1.91-.9a76.15,76.15,0,0,1-6.87-3.77,77.56,77.56,0,1,1,118.22-66Z" transform="translate(-359.54 -340.06)"/><polygon class="cls-3" points="154.74 296.74 131.1 296.56 132.09 298.63 139.82 303.07 143.48 317.02 154.74 296.74"/><path class="cls-1" d="M525.54,696.26v28h-98l10-10.79a77.62,77.62,0,0,0,88-17.17Z" transform="translate(-359.54 -340.06)"/><path class="cls-4" d="M525.54,663v33.29a77.62,77.62,0,0,1-88,17.17l43.49-47-53.48-18.23v-6.7h76.53A21.45,21.45,0,0,1,525.54,663Z" transform="translate(-359.54 -340.06)"/><polygon class="cls-111" points="92.62 342.81 13.9 377.68 13.9 380.21 109.9 380.21 92.62 342.81"/><path class="cls-1" d="M525.78,716l-55.25,9.73-2.48-5.45,1.38,0a77.16,77.16,0,0,0,45.73-14.92Z" transform="translate(-359.54 -340.06)"/><path class="cls-6" d="M515.16,705.35a77.16,77.16,0,0,1-45.73,14.92l-1.38,0-4.65-10.18L474.68,689l-16.68,10-22.36,13.47-3.5,2.11-5.86-2.87,2.49-3,36.17-43.71a6.41,6.41,0,0,1,9.47-.45Z" transform="translate(-359.54 -340.06)"/><polygon class="cls-112" points="114.26 323.93 152.1 337.09 128.57 338.24 114.26 323.93"/><polygon class="cls-113" points="99.02 358.68 115.14 348.96 103.86 370.01 99.02 358.68"/><polygon class="cls-3" points="68.02 301.46 58.65 300.72 51.99 305.63 50.61 312.63 51.57 313.92 54.98 307.88 63.19 306.17 68.02 307.96 68.02 301.46"/><polygon class="cls-3" points="18 358.87 13.9 377.68 13.9 380.21 21.52 380.21 22.01 374.09 19.05 359.71 18 358.87"/><polygon class="cls-3" points="66.53 372.14 47.02 378.42 46.14 380.21 73.98 380.21 72.18 374.77 66.53 372.14"/><path class="cls-19" d="M515.12,618.14v18.92H489.91V618.14a12.22,12.22,0,0,1,.12-1.72,12.6,12.6,0,0,1,25.09,1.72Z" transform="translate(-359.54 -340.06)"/><path class="cls-114" d="M503.24,621.22a1.89,1.89,0,0,1-2.09,1.85l-11.24-.7v-4.23a12.22,12.22,0,0,1,.12-1.72l8.84.54a4.61,4.61,0,0,1,4.37,4.12Z" transform="translate(-359.54 -340.06)"/><polygon class="cls-19" points="313.23 125.61 151.39 60.7 149.2 68.16 279.02 151.93 313.23 125.61"/><path class="cls-3" d="M505.66,390.23l-10.52-1.32-13.6-4.82v2.63l14.09,6,.49,3.79-.54-3.64-15.79-2.63.44,1.75,15.25,4.34-12.62-1.27.44,2.2,13.24,2.52.35,2.74,11,4.82.87.88,2.2-7.45ZM496,396.47l.09,0,.42,3.27Z" transform="translate(-359.54 -340.06)"/><polygon class="cls-3" points="125.95 58.95 126.39 60.7 137.35 62.45 136.92 59.82 125.95 58.95"/><polygon class="cls-19" points="321.13 160.7 275.07 240.52 272.88 224.3 279 199.4 321.13 160.7"/><polygon class="cls-3" points="263.23 230.88 263.23 232.19 269.81 230 261.92 234.38 261.92 235.7 269.81 232.19 261.04 238.33 261.04 240.09 270.25 235.7 261.92 241.4 262.36 242.72 270.69 238.33 266.3 241.84 266.3 244.03 275.07 240.52 272.88 224.3 269.37 228.24 263.23 230.88"/><polygon class="cls-19" points="245.69 230 130.34 222.98 132.09 197.1 245.69 230"/><polygon class="cls-19" points="134.72 164.21 136.48 137.01 143.06 137.01 150.95 164.21 134.72 164.21"/><polygon class="cls-3" points="135.54 137.01 143.34 136.9 150.19 129.84 121.45 105.77 119.26 108.03 132.67 130.93 135.54 137.01"/><polygon class="cls-3" points="132.53 120.35 138.67 114.21 138.67 103.24 97 106.31 97 109.82 125.51 117.72 132.53 120.35"/><path class="cls-19" d="M703.91,472.69l10.54-25.12A12.61,12.61,0,0,0,709,431.66l-.36-.2a17.06,17.06,0,0,0-24,8.18l-11,25.59Z" transform="translate(-359.54 -340.06)"/><path class="cls-114" d="M713.9,448.89l-12-3.65a5.74,5.74,0,0,0-7,3.3h0a2.61,2.61,0,0,0,1.66,3.48l14.22,4.29Z" transform="translate(-359.54 -340.06)"/><polygon class="cls-3" points="313.23 125.61 314.11 125.17 344.37 132.63 342.18 134.82 330.34 137.01 319.43 153.17 313.23 125.61"/><polygon class="cls-8" points="313.23 125.61 263.34 141.81 203.58 160.7 125.07 164.21 132.53 120.35 125.51 117.72 81.21 182.63 245.69 230 321.13 160.7 313.23 125.61"/><rect class="cls-6" x="864.52" y="219.79" width="265.17" height="147.61"/><rect class="cls-115" x="870.21" y="225.49" width="253.78" height="136.21"/><rect class="cls-6" x="967.19" y="367.4" width="49.47" height="32.66"/><rect class="cls-116" x="878.9" y="235.91" width="171.92" height="80.62"/><rect class="cls-2" x="891.41" y="258.48" width="107.69" height="3.41"/><rect class="cls-2" x="891.41" y="264.32" width="107.69" height="3.41"/><rect class="cls-2" x="891.41" y="270.17" width="107.69" height="3.41"/><rect class="cls-2" x="891.41" y="276.02" width="107.69" height="3.41"/><rect class="cls-2" x="891.41" y="281.87" width="107.69" height="3.41"/><rect class="cls-2" x="891.41" y="287.71" width="107.69" height="3.41"/><rect class="cls-2" x="891.41" y="293.56" width="107.69" height="3.41"/><rect class="cls-2" x="891.41" y="299.41" width="107.69" height="3.41"/><rect class="cls-2" x="891.41" y="305.25" width="107.69" height="3.41"/><rect class="cls-4" x="878.9" y="235.91" width="171.92" height="14.62"/><circle class="cls-6" cx="886.41" cy="243.22" r="3.41"/><circle class="cls-3" cx="905.9" cy="243.22" r="3.41"/><circle class="cls-8" cx="896.15" cy="243.22" r="3.41"/><rect class="cls-7" x="910.02" y="254.96" width="171.92" height="80.62"/><rect class="cls-2" x="922.52" y="277.52" width="107.69" height="3.41"/><rect class="cls-2" x="922.52" y="283.37" width="107.69" height="3.41"/><rect class="cls-2" x="922.52" y="289.22" width="107.69" height="3.41"/><rect class="cls-2" x="922.52" y="295.06" width="107.69" height="3.41"/><rect class="cls-2" x="922.52" y="300.91" width="107.69" height="3.41"/><rect class="cls-2" x="922.52" y="306.76" width="107.69" height="3.41"/><rect class="cls-2" x="922.52" y="312.61" width="107.69" height="3.41"/><rect class="cls-2" x="922.52" y="318.45" width="107.69" height="3.41"/><rect class="cls-2" x="922.52" y="324.3" width="107.69" height="3.41"/><rect class="cls-6" x="910.02" y="254.95" width="171.92" height="14.62"/><circle class="cls-4" cx="917.52" cy="262.26" r="3.41"/><circle class="cls-3" cx="937.02" cy="262.26" r="3.41"/><circle class="cls-8" cx="927.27" cy="262.26" r="3.41"/><rect class="cls-117" x="937.02" y="275.71" width="171.92" height="80.62"/><rect class="cls-2" x="949.52" y="298.27" width="107.69" height="3.41"/><rect class="cls-2" x="949.52" y="304.12" width="107.69" height="3.41"/><rect class="cls-2" x="949.52" y="309.97" width="107.69" height="3.41"/><rect class="cls-2" x="949.52" y="315.82" width="107.69" height="3.41"/><rect class="cls-2" x="949.52" y="321.66" width="107.69" height="3.41"/><rect class="cls-2" x="949.52" y="327.51" width="107.69" height="3.41"/><rect class="cls-2" x="949.52" y="333.36" width="107.69" height="3.41"/><rect class="cls-2" x="949.52" y="339.2" width="107.69" height="3.41"/><rect class="cls-2" x="949.52" y="345.05" width="107.69" height="3.41"/><rect class="cls-19" x="937.02" y="275.71" width="171.92" height="14.62"/><circle class="cls-4" cx="944.52" cy="283.02" r="3.41"/><circle class="cls-3" cx="964.02" cy="283.02" r="3.41"/><circle class="cls-8" cx="954.27" cy="283.02" r="3.41"/><text class="cls-118" transform="translate(989.16 246.63)">&lt;<tspan class="cls-119" x="7.15" y="0">h</tspan><tspan x="13.76" y="0">tml&gt;</tspan></text><text class="cls-118" transform="translate(1053.71 286.78)">&lt;sc<tspan class="cls-120" x="17.28" y="0">r</tspan><tspan x="21.25" y="0">ipt&gt;</tspan></text><text class="cls-118" transform="translate(1028.31 265.68)">&lt;s<tspan class="cls-121" x="11.9" y="0">t</tspan><tspan x="15.98" y="0">yle&gt;</tspan></text><g class="cls-122"><polygon class="cls-108" points="1188.87 100.82 1187.99 130.04 961.54 261.81 962.41 232.59 1188.87 100.82"/><polygon class="cls-6" points="962.41 232.59 961.54 261.81 811.71 173.51 812.59 144.29 962.41 232.59"/><polygon class="cls-4" points="1188.87 101.08 962.41 232.59 812.67 144.29 1039.13 12.79 1188.87 101.08"/><polygon class="cls-109" points="1014.32 171.72 1014 187.85 962.74 217.64 963.06 201.51 1014.32 171.72"/><polygon class="cls-110" points="963.06 201.51 962.74 217.64 911.15 187.85 911.47 171.72 963.06 201.51"/><polygon class="cls-5" points="1014.32 171.72 963.06 201.51 911.47 171.72 962.73 141.94 1014.32 171.72"/><polygon class="cls-109" points="1100.43 125.81 1100.11 141.94 1048.85 171.72 1049.18 155.59 1100.43 125.81"/><polygon class="cls-110" points="1049.18 155.59 1048.85 171.72 997.26 141.94 997.59 125.81 1049.18 155.59"/><polygon class="cls-5" points="1100.43 125.81 1049.18 155.59 997.59 125.81 1048.84 96.02 1100.43 125.81"/><polygon class="cls-109" points="937.11 125.81 936.78 141.94 885.53 171.72 885.85 155.59 937.11 125.81"/><polygon class="cls-110" points="885.85 155.59 885.53 171.72 833.93 141.94 834.26 125.81 885.85 155.59"/><polygon class="cls-5" points="937.11 125.81 885.85 155.59 834.26 125.81 885.51 96.02 937.11 125.81"/><polygon class="cls-109" points="1023.22 79.89 1022.89 96.02 971.64 125.81 971.96 109.68 1023.22 79.89"/><polygon class="cls-110" points="971.96 109.68 971.64 125.81 920.05 96.02 920.37 79.89 971.96 109.68"/><polygon class="cls-5" points="1023.22 79.89 971.96 109.68 920.37 79.89 971.63 50.11 1023.22 79.89"/><polygon class="cls-109" points="1177.65 79.89 1177.32 96.02 1126.07 125.81 1126.39 109.68 1177.65 79.89"/><polygon class="cls-110" points="1126.39 109.68 1126.07 125.81 1074.47 96.02 1074.8 79.89 1126.39 109.68"/><polygon class="cls-5" points="1177.65 79.89 1126.39 109.68 1074.8 79.89 1126.06 50.11 1177.65 79.89"/><polygon class="cls-109" points="1100.43 33.98 1100.11 50.11 1048.85 79.89 1049.18 63.77 1100.43 33.98"/><polygon class="cls-110" points="1049.18 63.77 1048.85 79.89 997.26 50.11 997.59 33.98 1049.18 63.77"/><polygon class="cls-5" points="1100.43 33.98 1049.18 63.77 997.59 33.98 1048.84 4.19 1100.43 33.98"/><polygon class="cls-4" points="1045.75 106.5 1057.26 116.58 1043.96 127.42 1035.06 119.63 1045.75 106.5"/><polygon class="cls-4" points="1033.99 120.62 1042.82 128.35 1034.21 135.34 1026.45 128.55 1033.99 120.62"/><polygon class="cls-4" points="1058.05 117.52 1069.56 127.6 1053.95 136.17 1044.88 128.23 1058.05 117.52"/><polygon class="cls-4" points="1035.15 136.14 1043.82 129.22 1052.45 136.78 1042.44 142.52 1035.15 136.14"/><polygon class="cls-123" points="987.8 167 985.54 168.31 967.16 157.7 969.43 156.39 987.8 167"/><path class="cls-123" d="M1332.12,503.63a5.29,5.29,0,0,0-.84.4c-1.6.93-1.51,2.29-.11,3.46a8,8,0,0,0,.95.67l6.68,3.85-2.24,1.31-8.62-5c-1.47-.85-2.77-1.57-4-2.2l2-1.15,2.54,1.38.11-.07c-1.13-1.3-.82-2.7.69-3.58a4.16,4.16,0,0,1,.72-.33Z" transform="translate(-359.54 -340.06)"/><path class="cls-123" d="M1323.22,508.56l-3.23,1.88,6.75,3.9c1.56.9,2.87,1.15,4.13.42a5.55,5.55,0,0,0,1.16-.85l1.81.93a5.69,5.69,0,0,1-1.7,1.34,6.35,6.35,0,0,1-3.4.87,8.6,8.6,0,0,1-4.13-1.38l-6.84-3.94-1.92,1.12-1.73-1,1.92-1.12-3-1.74,1.62-1.63,3.6,2.08,3.23-1.88Z" transform="translate(-359.54 -340.06)"/><path class="cls-123" d="M1308.41,510l1.29,1.37a14,14,0,0,0-4.22,1.62c-4.06,2.36-4.15,5.44.43,8.08a13.59,13.59,0,0,0,13.67.18,8.53,8.53,0,0,0,2.94-2.54l2.24.76a10.82,10.82,0,0,1-3.75,3.14,17.56,17.56,0,0,1-17.39-.12c-5.45-3.15-5.48-7.43-.11-10.55A15.85,15.85,0,0,1,1308.41,510Z" transform="translate(-359.54 -340.06)"/><polygon class="cls-123" points="1064.62 34.1 1051.97 41.45 1050.66 40.7 1046.11 26.93 1046.04 26.89 1037.24 32 1035.35 30.91 1047.05 24.11 1048.42 24.9 1052.96 38.6 1053.04 38.65 1062.73 33.01 1064.62 34.1"/><polygon class="cls-123" points="989.92 71.35 984.15 81.83 982.37 80.8 987.42 71.99 987.37 71.96 972.17 74.92 970.38 73.89 988.47 70.51 989.92 71.35"/><polygon class="cls-123" points="975.31 86.97 957.2 90.34 955.8 89.53 961.54 79.02 963.33 80.06 958.34 88.83 958.4 88.86 973.52 85.94 975.31 86.97"/><g class="cls-124"><path class="cls-123" d="M1496.76,412.54l-3.24,1.89,6.76,3.9c1.55.89,2.87,1.15,4.13.41a5.55,5.55,0,0,0,1.16-.85l1.8.93a5.46,5.46,0,0,1-1.69,1.34,6.3,6.3,0,0,1-3.4.87,8.54,8.54,0,0,1-4.13-1.38l-6.84-3.94-1.92,1.12-1.74-1,1.93-1.12-3-1.74,1.61-1.62,3.59,2.07,3.25-1.88Z" transform="translate(-359.54 -340.06)"/><polygon class="cls-123" points="1138.25 84.39 1135.98 85.71 1117.61 75.1 1119.87 73.78 1138.25 84.39"/><path class="cls-123" d="M1490.74,428.54l-7.33-2.09-6.15,3.57,3.68,4.22-2.31,1.34-11.55-13.49,2.69-1.57,23.36,6.63Zm-14.78.2,5.22-3-6.72-1.91c-1.53-.43-2.81-.88-4.08-1.31l-.05,0c.78.74,1.56,1.52,2.28,2.33l3.35,3.9" transform="translate(-359.54 -340.06)"/></g><path class="cls-123" d="M1255.08,460.78,1272.79,471l-19.67,11.44-17.71-10.23-8.11,4.72-.12-20.86h36Zm-2,18.67,14.53-8.45-22.22-12.82h-14.58l.05,8.44,22.22,12.83m-22.19-7.62,1.91-1.11-1.92-1.11v2.22m23.49-13.65h-3.83l1.92,1.11,1.91-1.11" transform="translate(-359.54 -340.06)"/></g></svg>