<svg xmlns="http://www.w3.org/2000/svg" xmlns:xlink="http://www.w3.org/1999/xlink" viewBox="0 0 200 200">
  <defs>
    <clipPath id="a">
      <rect width="200" height="200" style="fill: none"/>
    </clipPath>
  </defs>
  <title>sass_1Mesa de trabajo 1</title>
  <rect width="200" height="200" style="fill: #f09623"/>
  <g style="clip-path: url(#a)">
    <g style="isolation: isolate">
      <ellipse cx="57.94" cy="19.6" rx="4.48" ry="7.73" transform="translate(38.18 77.48) rotate(-89.84)" style="fill: #35a2bd"/>
      <path d="M57.54,5.85,333.79,165.34,310.46,178.9,77.6,44.46l-43.39-25Zm10.62,26a12,12,0,0,0,10.92,0c3-1.74,3-4.58,0-6.33a12.1,12.1,0,0,0-10.93,0c-3,1.75-3,4.59,0,6.33m15.66,9a12,12,0,0,0,10.92,0c3-1.74,3-4.58,0-6.32a12,12,0,0,0-10.93,0c-3,1.74-3,4.57,0,6.32M52.49,22.76a12.1,12.1,0,0,0,10.93,0c3-1.75,3-4.58,0-6.33a12.07,12.07,0,0,0-10.92,0c-3,1.75-3,4.58,0,6.33" style="fill: #443283"/>
      <ellipse cx="89.26" cy="37.68" rx="4.48" ry="7.73" transform="matrix(0, -1, 1, 0, 51.33, 126.84)" style="fill: #cc6475"/>
      <polygon points="77.49 91.53 72.04 94.7 48.34 81.01 53.78 77.85 77.49 91.53" style="fill: #2b3663"/>
      <polygon points="77.6 44.46 -27.77 105.69 -71.16 80.65 34.21 19.41 77.6 44.46" style="fill: #35a2bd"/>
      <polygon points="58.28 112.88 52.83 116.05 20.34 97.29 25.78 94.12 58.28 112.88" style="fill: #2b3663"/>
      <polygon points="81.79 137.28 76.35 140.44 11 102.71 16.44 99.55 81.79 137.28" style="fill: #2b3663"/>
      <polygon points="180.26 150.87 174.82 154.04 103 112.57 108.45 109.41 180.26 150.87" style="fill: #2b3663"/>
      <polygon points="219.23 151.75 213.79 154.91 146.38 116 151.83 112.83 219.23 151.75" style="fill: #2b3663"/>
      <polygon points="91.3 153.59 85.85 156.75 1.66 108.14 7.1 104.98 91.3 153.59" style="fill: #2b3663"/>
      <polygon points="254.83 161.49 249.39 164.65 76.34 64.74 81.79 61.58 254.83 161.49" style="fill: #2b3663"/>
      <polygon points="208.15 188.61 202.71 191.78 135.84 153.17 141.28 150 208.15 188.61" style="fill: #2b3663"/>
      <path d="M58.39-2.65,348.46,164.82,204.25,248.63-85.82,81.16ZM204.24,246.77l141-82L58.4-.79l-141,82L204.24,246.77" style="fill: #4c3c88"/>
      <ellipse cx="73.6" cy="28.64" rx="4.48" ry="7.73" transform="translate(44.75 102.16) rotate(-89.84)" style="fill: #d9881e"/>
      <path d="M77.6,44.46,310.46,178.9,205.08,240.14-27.78,105.69ZM249.39,164.65l5.44-3.17-173-99.9-5.45,3.16,173,99.91m-37.34,21.7,5.44-3.17L90.75,110l-5.44,3.17,126.74,73.17M63.11,72.43l-5.45,3.16L167,138.71l5.44-3.17L63.11,72.43m22.74,84.32,5.45-3.16L7.1,105l-5.44,3.16,84.19,48.61m94.41-5.88-71.81-41.46L103,112.57,174.82,154l5.44-3.17M146.38,116l67.41,38.91,5.44-3.16-67.4-38.92L146.38,116m56.33,75.78,5.44-3.17L141.28,150l-5.44,3.17,66.87,38.61M72.45,67,67,70.17l66.61,38.45,5.45-3.16L72.45,67m-56,32.55L11,102.71l65.35,37.73,5.44-3.16L16.44,99.55m94.47,50,5.44-3.17-48.44-28-5.45,3.17,48.45,28M25.78,94.12l-5.44,3.17,32.49,18.76,5.45-3.17L25.78,94.12m28-16.27L48.34,81,72,94.7l5.45-3.17L53.78,77.85" style="fill: #a1a09f"/>
      <polygon points="139.06 105.46 133.61 108.63 67 70.17 72.45 67 139.06 105.46" style="fill: #2b3663"/>
      <polygon points="172.42 135.54 166.98 138.71 57.66 75.59 63.11 72.43 172.42 135.54" style="fill: #2b3663"/>
      <polygon points="116.35 146.41 110.91 149.58 62.46 121.61 67.91 118.44 116.35 146.41" style="fill: #2b3663"/>
      <polygon points="217.49 183.19 212.05 186.35 85.31 113.18 90.75 110.01 217.49 183.19" style="fill: #2b3663"/>
    </g>
  </g>
  <g>
    <path d="M91,106.52c0-1,1.1-2,2.75-3A13.48,13.48,0,0,1,97.52,102v.88a26.25,26.25,0,0,1-4.33,3.66C91.88,107.3,91,107.6,91,106.52Z" style="fill: #bb5c6c"/>
    <polygon points="117.95 33.54 134.95 43.23 118 53.02 117.95 33.54" style="fill: #1f1442"/>
    <polygon points="135.15 114.81 135.21 135.77 65.11 176.24 65.05 155.28 135.15 114.81" style="fill: #1f1442"/>
    <path d="M83.2,105.11c2.57-1.48,4.55-2.18,4.72-.08l-1.64,1c-.11-.91-1-.6-3.24.7s-2.8,2-2.79,2.59.42.51,3.22-.83,4.7-2.4,4.7-.21-1.74,3.74-4.5,5.34-5.29,2.6-5.4.06l1.64-.94c.11,1,1,1,3.63-.54s3-2.09,3-2.88-.4-.64-3.33.8-4.6,2.13-4.6.26S80.63,106.6,83.2,105.11Z" style="fill: #b71c52"/>
    <path d="M94.42,98.63c3-1.73,4.58-1.57,4.61,1.61l0,4.17-1.52.87v-1a21.13,21.13,0,0,1-4.79,4c-2.23,1.28-3.37,1.05-3.38-.85,0-2.14,2-4,4.3-5.36a14.47,14.47,0,0,1,3.86-1.56c0-2-2.22-.9-3.23-.32a19.09,19.09,0,0,0-3.78,2.9l-.56-1.07A24.5,24.5,0,0,1,94.42,98.63Zm3.1,4.25V102a13.48,13.48,0,0,0-3.77,1.52c-1.65,1-2.75,2-2.75,3s.88.78,2.19,0a26.25,26.25,0,0,0,4.33-3.66" style="fill: #b71c52"/>
    <path d="M105.47,92.25c2.57-1.48,4.55-2.18,4.72-.07l-1.64.94c-.11-.9-1-.6-3.24.7s-2.8,2-2.8,2.59.43.51,3.23-.83,4.7-2.4,4.7-.21-1.74,3.74-4.5,5.34-5.29,2.6-5.4.07l1.64-1c.11,1,1,1,3.63-.53s3-2.1,3-2.89-.4-.63-3.33.8-4.6,2.14-4.6.26S102.9,93.74,105.47,92.25Z" style="fill: #b71c52"/>
    <path d="M116.76,85.73c2.57-1.48,4.56-2.18,4.72-.08l-1.64.95c-.11-.9-1-.6-3.24.7s-2.8,2-2.8,2.59.43.51,3.23-.83,4.7-2.4,4.71-.21-1.75,3.75-4.51,5.34-5.28,2.6-5.4.06l1.64-.94c.12,1,1,1,3.63-.53s3-2.1,3-2.89-.41-.64-3.35.8-4.58,2.14-4.59.26S114.19,87.22,116.76,85.73Z" style="fill: #b71c52"/>
    <path d="M118,53,135,43.23l.2,71.58-70.1,40.47-.26-91L118,33.54Zm-.77,41.17c2.76-1.59,4.51-3.15,4.51-5.34s-1.93-1.11-4.71.21-3.23,1.43-3.23.83.59-1.31,2.8-2.59,3.13-1.6,3.24-.7l1.64-.95c-.16-2.1-2.15-1.4-4.72.08s-4.6,3.21-4.6,5.22,1.59,1.23,4.59-.26,3.34-1.56,3.35-.8-.42,1.4-3,2.89-3.51,1.58-3.63.53l-1.64.94c.12,2.54,2.59,1.56,5.4-.06m-11.29,6.52c2.76-1.6,4.51-3.15,4.5-5.34s-1.93-1.11-4.7.21-3.22,1.43-3.23.83.58-1.31,2.8-2.59,3.13-1.6,3.24-.7l1.64-.94c-.17-2.11-2.15-1.41-4.72.07s-4.61,3.21-4.6,5.22,1.59,1.23,4.6-.26,3.33-1.56,3.33-.8-.41,1.4-3,2.89-3.52,1.58-3.63.53l-1.64,1c.11,2.53,2.59,1.55,5.4-.07M83.67,113.57c2.76-1.6,4.51-3.15,4.5-5.34s-1.93-1.11-4.7.21-3.22,1.43-3.22.83.57-1.32,2.79-2.59,3.13-1.61,3.24-.7l1.64-1c-.17-2.1-2.15-1.4-4.72.08s-4.61,3.21-4.6,5.22,1.59,1.22,4.6-.26,3.33-1.56,3.33-.8-.41,1.39-3,2.88-3.52,1.59-3.63.54l-1.64.94c.11,2.54,2.59,1.56,5.4-.06m15.38-9.16,0-4.17c0-3.18-1.6-3.34-4.61-1.61a24.5,24.5,0,0,0-4.48,3.43l.56,1.07a19.09,19.09,0,0,1,3.78-2.9c1-.58,3.19-1.65,3.23.32a14.47,14.47,0,0,0-3.86,1.56c-2.32,1.34-4.3,3.22-4.3,5.36,0,1.9,1.15,2.13,3.38.85a21.13,21.13,0,0,0,4.79-4v1l1.52-.87" style="fill: #bb5c6c"/>
  </g>
</svg>
